<?xml version="1.0" encoding="UTF-8"?><svg xmlns="http://www.w3.org/2000/svg" viewBox="0 0 35 35"><g id="Example_glyph"><g id="Line_2-2"><text transform="translate(7.77 27.99)" fill="#bcbcbc" font-family="ArialMT, Arial" font-size="35"><tspan x="0" y="0">d</tspan></text></g></g><g id="Artwork_glyph"><path d="M23.89,3.6c.04-.88-1.48-.87-1.52,0-.16,3.93-.18,7.85-.05,11.78-1.51-2.63-4.96-3.77-8.03-2.74-7.26,2.42-5.9,11.26-.06,14.35,2.8,1.48,6.61,1.36,8.73-.84,.07,.46,.14,.91,.21,1.37,.12,.75,1.57,.58,1.49-.18-.84-7.89-1.1-15.81-.77-23.73Zm-1.43,20.76c-1.99,3.58-7.09,2.39-9.51-.09-2.37-2.42-3.2-6.42-.54-8.93,2.51-2.37,7.03-2.39,8.69,.85,.84,1.64,.9,3.65,1.17,5.42,.13,.85,.26,1.69,.39,2.54-.07,.05-.14,.13-.19,.22Z" fill="#231f20"/></g></svg>