<?xml version="1.0" encoding="UTF-8"?><svg xmlns="http://www.w3.org/2000/svg" viewBox="0 0 35 35"><g id="Example_glyph"><g id="Line_2-2"><text transform="translate(7.77 27.99)" fill="#bcbcbc" font-family="ArialMT, Arial" font-size="35"><tspan x="0" y="0">e</tspan></text></g></g><g id="Artwork_glyph"><path d="M25.99,21.97c-1.54,3.14-4.89,5.11-8.49,4.79-3.72-.34-6.75-3.06-7.49-6.6-.06-.28-.09-.55-.12-.83,2.61-.39,5.21-.88,7.77-1.49,1.22-.29,2.45-.58,3.64-.96,.87-.28,1.76-.66,2.36-1.36,1.31-1.53,.4-3.62-1.16-4.59-1.73-1.08-4.16-1.24-6.15-.96-4.34,.6-7.58,3.97-7.76,8.26-.18,4.23,2.72,8.15,6.87,9.37,4.57,1.35,9.54-.84,11.59-5.01,.35-.7-.73-1.32-1.08-.61ZM14.91,11.54c1.63-.53,3.42-.61,5.1-.25,.84,.18,1.75,.46,2.37,1.08,.7,.69,.95,1.77,.2,2.51-.69,.68-1.8,.89-2.7,1.14-1.16,.32-2.33,.61-3.51,.88-2.15,.49-4.32,.89-6.5,1.22,.19-2.92,2.07-5.59,5.05-6.57Z" fill="#231f20"/></g></svg>