<?xml version="1.0" encoding="UTF-8"?><svg xmlns="http://www.w3.org/2000/svg" viewBox="0 0 35 35"><g id="Example_glyph"><g id="Line_2-2"><text transform="translate(12.64 27.99)" fill="#bcbcbc" font-family="ArialMT, Arial" font-size="35"><tspan x="0" y="0">f</tspan></text></g></g><g id="Artwork_glyph"><path d="M24.78,4.6c-1.65-1.29-3.91-2.41-5.82-1.03-1.75,1.28-2.11,3.89-2.39,5.97-.05,.37-.08,.74-.13,1.11-1.49,.26-2.98,.53-4.47,.79-.79,.14-.46,1.45,.33,1.31,1.33-.24,2.66-.47,3.99-.71-.44,5.17-.1,10.39,1,15.46,.18,.85,1.39,.49,1.21-.36-1.05-4.84-1.39-9.83-.99-14.78,.01-.18,.03-.36,.04-.54,1.74-.31,3.49-.62,5.23-.93,.79-.14,.46-1.45-.33-1.31-1.59,.28-3.19,.56-4.78,.85,.15-1.57,.4-3.19,1.04-4.51,1.26-2.59,3.72-1.49,5.44-.15,.65,.51,1.28-.67,.63-1.17Z" fill="#231f20"/></g></svg>