<?xml version="1.0" encoding="UTF-8"?><svg xmlns="http://www.w3.org/2000/svg" viewBox="0 0 35 35"><g id="Example_glyph"><g id="Line_2-2"><text transform="translate(7.77 27.99)" fill="#bcbcbc" font-family="ArialMT, Arial" font-size="35"><tspan x="0" y="0">g</tspan></text></g></g><g id="Artwork_glyph"><path d="M24.44,10.61c-3.08-1.21-6.74-1.1-9.3,1.12-2.18,1.89-2.9,5.04-1.39,7.53,1.41,2.34,4.78,3.41,6.93,1.32,.95-.92,1.45-2.18,1.87-3.39,.19-.55,.37-1.1,.55-1.65-.02,1.8-.03,3.6-.05,5.39-.03,2.97,.1,6.03-.66,8.93-.32,1.22-.79,2.86-1.96,3.59-1.43,.9-2.95-.81-3.9-1.73-2.05-1.99-3.58-4.4-4.54-7.05-.28-.77-1.56-.44-1.27,.34,1.2,3.31,7.69,14.29,11.75,8.12,1.8-2.72,1.83-6.45,1.88-9.56,.05-3.91,.07-7.82,.1-11.73,.5-.13,.63-1-.01-1.25Zm-3.72,7.62c-.5,1.02-1.28,2.1-2.56,2.21-1.36,.12-2.61-.74-3.27-1.83-1.28-2.1-.49-4.66,1.39-6.15,1.93-1.53,4.48-1.63,6.77-.98-.72,2.24-1.29,4.63-2.33,6.74Z" fill="#231f20"/></g></svg>