<?xml version="1.0" encoding="UTF-8"?><svg xmlns="http://www.w3.org/2000/svg" viewBox="0 0 35 35"><g id="Example_glyph"><g id="Line_2-2"><text transform="translate(7.77 27.99)" fill="#bcbcbc" font-family="ArialMT, Arial" font-size="35"><tspan x="0" y="0">h</tspan></text></g></g><g id="Artwork_glyph"><path d="M23.49,16.33c-.48-2.35-1.25-6.62-4.83-6.18-2.94,.36-4.08,4.24-4.76,6.42-.39,1.25-.67,2.52-.85,3.81-.86-5.57-1.1-11.21-.7-16.84,.06-.8-1.28-.79-1.33,0-.56,7.87,.12,15.76,1.99,23.45,.16,.67,1.39,.54,1.31-.17-.33-2.77-.21-5.56,.43-8.28,.31-1.31,.72-2.61,1.26-3.86,.48-1.13,1.15-2.8,2.51-3.24,3.16-1.02,3.7,5.09,4.01,6.79,.55,3.03,.86,6.09,.97,9.16,.03,.8,1.36,.8,1.33,0-.14-3.72-.57-7.42-1.32-11.07Z" fill="#231f20"/></g></svg>