<?xml version="1.0" encoding="UTF-8"?><svg xmlns="http://www.w3.org/2000/svg" viewBox="0 0 35 35"><g id="Example_glyph"><g id="Line_2-2"><text transform="translate(13.61 27.99)" fill="#bcbcbc" font-family="ArialMT, Arial" font-size="35"><tspan x="0" y="0">i</tspan></text></g></g><g id="Artwork_glyph"><path d="M18.47,15.55c-.04-.8-1.29-.81-1.25,0,.18,3.9-.06,7.81-.73,11.66-.14,.79,1.07,1.12,1.21,.33,.69-3.96,.96-7.98,.78-11.99Z" fill="#231f20"/><g><path d="M16.89,9.61s-.01,0-.02,0c0,0,.01,0,.02,0,0,0,0,0,0,0Z" fill="#231f20"/><path d="M18.31,11.32s.01,0,.02,0c0,0,.01,0,.02-.01-.02,0-.03,.01-.05,.02Z" fill="#231f20"/><path d="M18.68,8.61c-.22-.24-.66-.24-.88,0,0,0,0,0,0,0-.3-.18-.64-.29-1-.25-.47,.05-.86,.27-1.14,.64-.6,.78-.29,1.82,.37,2.44,.3,.28,.66,.52,1.01,.73,.38,.23,.82,.42,1.27,.4,.88-.05,1.42-.79,1.51-1.62,.09-.93-.55-1.71-1.13-2.35Zm-.16,2.47s0,.01-.01,.03c0,0,0,0,0,.01-.02,.05-.01,.03,0,0,0,.02-.02,.03-.01,.03-.01,.02-.03,.05-.04,.07-.02,.04-.04,.02,0,0,.06-.03,.02-.02-.01,.01-.02,.02-.03,.03-.05,.05,0,0-.02,.01-.03,.02,0,0,.01,0,.02,0,0,0-.02,0-.04,.01,0,0,0,0,0,0-.03,.02-.03,.02-.02,0,0,0-.02,0-.02,0,0,0-.02,0-.03,0,0,0,.02,0,.03,0-.01,0-.02,0-.03,0-.02,0-.04,0-.02,0,0,0-.02,0-.03,0,0,0-.03,0-.05,0-.02,0-.04,0-.05-.01-.04,0-.07-.02-.1-.03-.01,0-.04-.02-.06-.02-.26-.13-.5-.29-.74-.45-.05-.04-.1-.07-.15-.11,0,0-.08-.06-.1-.08-.06-.05-.11-.1-.16-.15-.02-.02-.04-.04-.06-.06-.01-.01-.01-.01-.02-.02,0,0,0,0-.01-.02-.03-.05-.07-.1-.09-.16,0,0-.02-.04-.02-.06,0-.02,0-.03-.01-.04,0-.03-.01-.06-.02-.08,0-.03,0-.06,0-.09,0,0,0,0,0-.01,0,0,0,0,0,0,0-.02,.01-.04,.02-.07,0,0,0,0,0,0,0,0,0,.01,0,.01,0,0,0-.01,0-.02,.02-.06,.01-.04,0,0,.01-.02,.03-.05,.03-.05,0-.01,0,0,0-.02,0,0,0,0,0,0,.02-.02,.03-.03,.05-.05,.02-.02,.02-.02,.03-.03-.01,.01-.03,.03-.03,.02,0,0,.01-.02,.04-.03,.01,0,0,0,0,0,.04-.02,.1-.05,.1-.05,0,0,.02,0,.02,0,.02,0,.02,0,.03,0-.01,0-.03,0-.03,0,0,0,.02,0,.04,0,.02,0,.02,0,0,0,.05,0,.11,.01,.13,.01,0,0,0,0,.01,0,.02,0,.05,.02,.07,.02,.03,.03,.15,.11,.05,.02,.24,.2,.59,.25,.83,.03,.03,.04,.07,.07,.1,.11,.04,.05,.08,.09,.11,.14,0,0,0,0,0,0,.02,.04,.05,.07,.08,.11,.08,.12,.15,.24,.21,.36,0,0,0,.01,0,.02,0,.02,.02,.04,.02,.05,.02,.07,.04,.14,.06,.21,0,.03,0,.05,0,.05,0,.06,0,.11,0,.17,0,0,0,0,0,0,0,0,0,0,0,.02-.01,.05-.03,.1-.04,.15,0,0,0-.01,0-.01Z" fill="#231f20"/><path d="M18.27,11.33s0,0,0,0c0,0-.02,0-.02,0,0,0,.01,0,.02,0Z" fill="#231f20"/><path d="M18.51,11.11s0-.01,0-.02c0,0,0,.02-.01,.03,0,0,0,0,0-.02Z" fill="#231f20"/><polygon points="16.72 9.67 16.72 9.68 16.72 9.67 16.72 9.67" fill="#231f20"/><path d="M16.6,9.84s0,0,0,0c0,0,0,0,0-.01,0,0,0,0,0,0Z" fill="#231f20"/></g></g></svg>