<?xml version="1.0" encoding="UTF-8"?><svg xmlns="http://www.w3.org/2000/svg" viewBox="0 0 35 35"><g id="Example_glyph"><g id="Line_2-2"><text transform="translate(13.61 27.99)" fill="#bcbcbc" font-family="ArialMT, Arial" font-size="35"><tspan x="0" y="0">j</tspan></text></g></g><g id="Artwork_glyph"><path d="M17.4,15.3c-.36-.81-1.53-.11-1.18,.7,1.71,3.88,2.29,8.28,1.57,12.47-.3,1.73-.77,3.89-2.44,4.79-2.14,1.16-3.29-.77-3.91-2.55-.29-.83-1.61-.47-1.32,.37,.67,1.92,1.74,4.02,4.07,3.92,2.31-.1,3.79-2.07,4.45-4.13,1.59-5.03,.85-10.81-1.24-15.56Z" fill="#231f20"/><path d="M19.29,8.94c-.08-.12-.2-.21-.33-.29-.01-.21-.14-.44-.38-.47-.9-.12-1.78,.14-2.44,.74-.64,.58-.94,1.42-.75,2.24,.09,.37,.3,.74,.61,.98,.4,.31,.87,.4,1.37,.33,1.02-.15,1.62-1.04,1.91-1.9,.17-.51,.36-1.15,.02-1.63Zm-.89,.78c-.02,.08-.04,.16-.06,.24-.05,.16-.1,.33-.16,.49-.01,.03-.03,.07-.04,.1,0,.02,0,.02-.01,.03,0,0,0,0,0,.02-.03,.07-.07,.14-.11,.21-.09,.16-.16,.24-.26,.34-.02,.02-.05,.05-.07,.07,0,0-.04,.03-.05,.04-.05,.03-.1,.07-.15,.09-.04,.02-.08,.04-.11,.06,0,0,0,0,0,0,0,0,0,0-.01,0-.04,.01-.08,.03-.12,.04-.01,0-.07,.01-.09,.02-.06,0-.11,0-.17,0-.01,0-.01,0-.02,0,0,0,0,0,0,0-.03-.01-.07-.01-.1-.02-.03,0-.08-.04-.07-.03-.01,0-.02-.01-.03-.02,0,0-.02-.01-.03-.02,0,0-.05-.03-.06-.05-.02-.02-.04-.05-.07-.07-.02-.05-.07-.1-.1-.15,0,0,0,0,0,0-.01-.03-.02-.05-.03-.08-.02-.07-.03-.14-.05-.2,0,0,0,0,0,0,0,0,0,0,0,0,0-.03,0-.06,0-.08,0-.06,0-.13,0-.19,0,0,0-.01,0-.02,0-.02,.01-.07,.01-.07,.01-.07,.03-.14,.06-.2,0-.02,.02-.04,.02-.06,0,0,0-.02,.01-.02,.04-.07,.07-.13,.11-.2,.03-.04,.06-.08,.09-.13,.01-.01,.03-.03,.04-.04,.03-.03,.05-.06,.08-.08,.06-.06,.13-.12,.19-.17,0,0,0,0,0,0,0,0,0,0,.02,0,.03-.02,.07-.04,.1-.06,.07-.05,.15-.09,.23-.12,.03-.01,.06-.03,.09-.04-.1,.05,.04-.01,.05-.02,.04-.02,.09-.03,.13-.04,.02,.09,.05,.18,.14,.25,.16,.14,.44,.19,.64,.08,0,.04,0,.08,0,.12,0-.02,.02-.08,0,.03Z" fill="#231f20"/></g></svg>