<?xml version="1.0" encoding="UTF-8"?><svg xmlns="http://www.w3.org/2000/svg" viewBox="0 0 35 35"><g id="Example_glyph"><g id="Line_2-2"><text transform="translate(8.75 27.99)" fill="#bcbcbc" font-family="ArialMT, Arial" font-size="35"><tspan x="0" y="0">k</tspan></text></g></g><g id="Artwork_glyph"><path d="M25.18,27.22c-2.27-3.98-6.65-7.2-11.92-8.86,0-.04,0-.08,0-.11,4.27-1.64,7.69-4.28,9.83-7.54,.48-.72-1.14-1.18-1.61-.47-1.82,2.76-4.7,4.99-8.22,6.5,0-4.32-.09-8.65-.29-12.98-.04-.82-1.73-.96-1.7-.13,.21,4.59,.3,9.18,.29,13.77-.38,.13-.76,.27-1.15,.38-.65,.19-.59,1.02,.11,1.18,.35,.08,.68,.18,1.02,.27-.02,2.64-.07,5.29-.17,7.93-.03,.82,1.67,.96,1.7,.13,.09-2.51,.14-5.03,.17-7.55,4.61,1.59,8.39,4.44,10.41,8,.44,.77,1.95,.24,1.52-.53Z" fill="#231f20"/></g></svg>