<?xml version="1.0" encoding="UTF-8"?><svg xmlns="http://www.w3.org/2000/svg" viewBox="0 0 35 35"><g id="Example_glyph"><g id="Line_2-2"><text transform="translate(2.92 27.99)" fill="#bcbcbc" font-family="ArialMT, Arial" font-size="35"><tspan x="0" y="0">m</tspan></text></g></g><g id="Artwork_glyph"><path d="M29.32,17.15c-.31-2.26-.99-5.22-3.29-6.17-2.5-1.04-5.05,1.03-6.75,2.71-1.34,1.33-2.43,2.88-3.3,4.55-.04-.6-.08-1.21-.12-1.81-.07-1.07-.02-2.33-.49-3.32-.95-2-3.29-1.52-4.51-.1-1.53,1.78-2.56,4.23-3.33,6.45-.17,.48-.31,.98-.44,1.47-.18-3.48-.35-6.96-.53-10.44-.04-.87-1.36-.88-1.32,0,.28,5.61,.57,11.23,.85,16.84,.04,.87,1.29,.88,1.32,0,.14-3.92,1.16-7.77,3.02-11.2,.45-.83,.94-1.79,1.61-2.44,.33-.32,.83-.66,1.32-.6,.86,.09,.98,.98,1.06,1.66,.22,2.04,.28,4.12,.42,6.17,.05,.78,1.04,.91,1.29,.18,.77-2.15,1.93-4.13,3.45-5.8,1.38-1.51,4.08-4.24,6.26-2.92,1.85,1.13,2.18,4.23,2.31,6.2,.18,2.63-.19,5.23-1.03,7.73-.28,.83,.99,1.18,1.27,.36,1.03-3.06,1.36-6.32,.93-9.53Z" fill="#231f20"/></g></svg>