<?xml version="1.0" encoding="UTF-8"?><svg xmlns="http://www.w3.org/2000/svg" viewBox="0 0 35 35"><g id="Example_glyph"><g id="Line_2-2"><text transform="translate(7.77 27.99)" fill="#bcbcbc" font-family="ArialMT, Arial" font-size="35"><tspan x="0" y="0">n</tspan></text></g></g><g id="Artwork_glyph"><path d="M22.08,12.24c-.56-.87-1.34-1.76-2.49-1.78-1.24-.02-2.27,.9-3.13,1.65-1.95,1.71-3.54,3.84-4.62,6.16-.06,.13-.11,.26-.17,.39l.28-8.2c.03-.82-1.3-.82-1.32,0-.16,4.65-.31,9.31-.47,13.96-.07,.73-.1,1.47-.07,2.22,.02,.82,1.3,.82,1.32,0,.02-.71,.05-1.43,.07-2.14,.2-2.05,.76-4.07,1.68-5.94,1.19-2.42,3.08-5.09,5.5-6.52,1.63-.96,2.52,1.13,3.1,2.29,.65,1.31,1.11,2.72,1.39,4.15,.57,2.92,.31,5.94-.71,8.74-.28,.78,1,1.11,1.28,.34,1.8-4.99,1.27-10.8-1.63-15.31Z" fill="#231f20"/></g></svg>