<?xml version="1.0" encoding="UTF-8"?><svg xmlns="http://www.w3.org/2000/svg" viewBox="0 0 35 35"><g id="Example_glyph"><g id="Line_2-2"><text transform="translate(7.77 27.99)" fill="#bcbcbc" font-family="ArialMT, Arial" font-size="35"><tspan x="0" y="0">o</tspan></text></g></g><g id="Artwork_glyph"><path d="M24.7,13.06c-.83-1.76-2.56-2.97-4.91-3.18-2.63-.23-5.04,.76-7.29,1.73-.7,.3-.34,1.05,.28,1.14-1.72,1.52-2.88,3.43-3.23,5.5-.55,3.2,.82,7.41,4.47,9.17,4.07,1.96,7.67-1.51,9.37-4.17,1.89-2.97,2.83-6.98,1.32-10.19Zm-2.04,8.45c-1.05,2.15-4.03,6.4-7.61,4.95-3.15-1.27-4.32-4.98-4.05-7.58,.32-3.11,2.76-5.85,6.15-7.28,.17-.07,.26-.17,.32-.28,2.2-.42,4.38-.21,5.56,1.78,1.5,2.52,.85,5.92-.37,8.42Z" fill="#231f20"/></g></svg>