<?xml version="1.0" encoding="UTF-8"?><svg xmlns="http://www.w3.org/2000/svg" viewBox="0 0 35 35"><g id="Example_glyph"><g id="Line_2-2"><text transform="translate(7.77 27.99)" fill="#bcbcbc" font-family="ArialMT, Arial" font-size="35"><tspan x="0" y="0">p</tspan></text></g></g><g id="Artwork_glyph"><path d="M24.44,16.25c-1.29-2.99-3.55-7.08-8-6.16-1.7,.35-2.93,1.25-3.81,2.4-.02-.66-.04-1.33-.06-1.99-.03-.87-1.56-.87-1.53,0,.05,1.67,.1,3.35,.16,5.02-.27,.99-.4,2.01-.42,2.96,0,.34,0,.69,0,1.04-.53,.07-.97,.69-.49,1.16,.17,.16,.36,.31,.54,.46,.09,1.58,.24,3.15,.35,4.72,.2,2.83,.4,5.67,.6,8.5,.06,.86,1.56,.88,1.53,0-.12-3.91-.24-7.82-.37-11.74,2.41,1.36,5.32,2.09,8.13,1.62,1.75-.29,3.28-1.19,3.94-2.68,.77-1.76,.16-3.63-.57-5.31Zm-1.26,5.47c-1.34,1.61-4.18,1.46-6.13,1.03-1.54-.34-2.93-.97-4.16-1.81-.06-1.81-.11-3.61-.17-5.42,.06-.21,.13-.42,.22-.63,.74-1.86,2.69-3.84,5.16-3.51,2.5,.33,3.69,2.66,4.53,4.48,.8,1.75,2.01,4.13,.55,5.87Z" fill="#231f20"/></g></svg>