<?xml version="1.0" encoding="UTF-8"?><svg xmlns="http://www.w3.org/2000/svg" viewBox="0 0 35 35"><g id="Example_glyph"><g id="Line_2-2"><text transform="translate(7.77 27.99)" fill="#bcbcbc" font-family="ArialMT, Arial" font-size="35"><tspan x="0" y="0">q</tspan></text></g></g><g id="Artwork_glyph"><path d="M23.08,29.01c-2.17,.04-4.22,.75-5.97,2,2.98-6.09,5.55-12.51,5.56-19.47,.49-.14,.61-1.06,0-1.31-.06-.02-.11-.04-.17-.06-.18-.19-.45-.27-.68-.2-2.67-.59-5.22,1.08-7.06,3.11-1.61,1.77-4.71,4.95-2.84,7.63,1.88,2.7,5.11,.32,6.65-1.43,1.05-1.18,1.92-2.52,2.61-3.96-.9,6.65-3.97,12.78-6.96,18.66-.39,.77,.61,1.36,1.08,.68,1.83-2.67,4.72-4.25,7.8-4.31,.8-.02,.81-1.36,0-1.34Zm-9.77-8.76c-2.28-1.64,1.43-5.28,2.59-6.5,1.45-1.52,3.33-2.75,5.35-2.49-.45,1.91-1.18,3.71-2.23,5.34-1.01,1.56-3.65,5.14-5.7,3.66Z" fill="#231f20"/></g></svg>