<?xml version="1.0" encoding="UTF-8"?><svg xmlns="http://www.w3.org/2000/svg" viewBox="0 0 35 35"><g id="Example_glyph"><g id="Line_2-2"><text transform="translate(11.67 27.99)" fill="#bcbcbc" font-family="ArialMT, Arial" font-size="35"><tspan x="0" y="0">r</tspan></text></g></g><g id="Artwork_glyph"><path d="M22.23,10.15c-2.16,1.16-3.96,2.87-5.27,4.93-.86-2.16-2.22-4.22-4.18-5.09-.75-.33-1.26,.88-.52,1.22,1.94,.86,3.18,3.11,3.89,5.3-1.07,2.17-1.64,4.63-1.6,7.2,.02,1.05-.04,3.03,.86,3.74,1.05,.82,1.9-.49,2.17-1.44,.8-2.76,.82-5.73,.14-8.54-.06-.26-.14-.53-.22-.8,1.22-2.23,3.02-4.09,5.18-5.25,.71-.38,.26-1.64-.46-1.26Zm-5.31,12.59c-.06,.73-.17,1.45-.34,2.15-.09,.37-.18,.75-.32,1.1-.2,.5-.17,.27-.24-.04-.53-2.55-.25-5.16,.64-7.5,.28,1.41,.37,2.86,.25,4.28Z" fill="#231f20"/></g></svg>