<?xml version="1.0" encoding="UTF-8"?><svg xmlns="http://www.w3.org/2000/svg" viewBox="0 0 35 35"><g id="Example_glyph"><g id="Line_2-2"><text transform="translate(8.75 27.99)" fill="#bcbcbc" font-family="ArialMT, Arial" font-size="35"><tspan x="0" y="0">s</tspan></text></g></g><g id="Artwork_glyph"><path d="M15.08,12.62c2.58-1.8,5.97-1.9,8.58-.15,.69,.46,1.32-.76,.63-1.22-2.29-1.53-5.1-1.84-7.63-.97-1.25,.43-2.42,1.15-3.41,2.13-.92,.91-1.85,2.55-.55,3.62,.48,.4,1.08,.51,1.65,.6,.94,.15,1.88,.3,2.82,.45,1.37,.22,2.87,.33,4.13,1.02,1.31,.73,1.87,2.15,1.35,3.73-.51,1.56-1.7,2.72-2.96,3.48-2.75,1.68-6.23,1.55-8.86-.35-.68-.49-1.31,.74-.63,1.22,2.3,1.65,5.16,2.1,7.8,1.36,2.55-.71,5.29-2.74,5.98-5.78,.33-1.44,.03-2.97-.92-4.02-.9-.99-2.16-1.43-3.36-1.68-1.65-.35-3.33-.55-5-.82-.45-.07-1.69-.15-1.29-.97,.34-.69,1.1-1.25,1.68-1.66Z" fill="#231f20"/></g></svg>