<?xml version="1.0" encoding="UTF-8"?><svg xmlns="http://www.w3.org/2000/svg" viewBox="0 0 35 35"><g id="Example_glyph"><g id="Line_2-2"><text transform="translate(12.64 27.99)" fill="#bcbcbc" font-family="ArialMT, Arial" font-size="35"><tspan x="0" y="0">t</tspan></text></g></g><g id="Artwork_glyph"><path d="M22.99,22.44c-.8,1.86-2.36,5.16-4.6,3.84-1.97-1.16-1.87-4.47-1.72-6.61,.22-3.11,.5-6.22,.78-9.33,1.53-.01,3.05-.03,4.58-.04,.8,0,.81-1.45,0-1.45-1.48,.01-2.97,.03-4.45,.04,.16-1.75,.32-3.51,.48-5.26,.08-.93-1.17-.92-1.25,0-.15,1.76-.31,3.52-.46,5.27-.91,0-1.83,.02-2.74,.03-.8,0-.81,1.45,0,1.45,.87,0,1.74-.02,2.62-.02-.1,1.2-.21,2.4-.31,3.6-.27,3.1-.92,6.5-.4,9.59,.37,2.18,1.72,4.47,3.83,4.45,2.42-.02,3.77-2.62,4.72-4.82,.36-.83-.72-1.56-1.08-.73Z" fill="#231f20"/></g></svg>