<?xml version="1.0" encoding="UTF-8"?><svg xmlns="http://www.w3.org/2000/svg" viewBox="0 0 35 35"><g id="Example_glyph"><g id="Line_2-2"><text transform="translate(7.77 27.99)" fill="#bcbcbc" font-family="ArialMT, Arial" font-size="35"><tspan x="0" y="0">u</tspan></text></g></g><g id="Artwork_glyph"><path d="M25.64,26.14c-1.01,.83-2.34,.28-3.04-.81-.78-1.22-.92-2.86-.96-4.32-.1-3.49,.58-6.9,1.26-10.28,.19-.93-.92-1.24-1.21-.38l-2.95,8.72c-.48,1.42-.95,2.86-1.45,4.27-.36,1.01-.84,2.32-1.81,2.7-1.2,.47-2.32-.67-2.87-1.79-.59-1.22-.88-2.67-1.09-4.03-.46-2.94-.32-5.96,.33-8.84,.21-.9-1-1.29-1.21-.38-.6,2.62-.79,5.35-.53,8.04,.23,2.36,.66,5.16,2.06,7.01,1.24,1.64,3.39,2.12,4.84,.56,.64-.69,1.04-1.64,1.37-2.56,.47-1.31,.9-2.64,1.35-3.96,.25-.73,.49-1.46,.74-2.19-.14,1.7-.16,3.4,.07,5.09,.22,1.65,.8,3.34,2.03,4.3,1.09,.85,2.59,1.02,3.69,.12,.65-.53,.03-1.79-.63-1.25Z" fill="#231f20"/></g></svg>