<?xml version="1.0" encoding="UTF-8"?><svg xmlns="http://www.w3.org/2000/svg" viewBox="0 0 35 35"><g id="Example_glyph"><g id="Line_2-2"><text transform="translate(4.86 27.99)" fill="#bcbcbc" font-family="ArialMT, Arial" font-size="35"><tspan x="0" y="0">w</tspan></text></g></g><g id="Artwork_glyph"><path d="M28.02,11.57c-1.08,4.33-2.48,8.59-4.31,12.63-.4,.88-.92,2.14-1.94,2.34-1.15,.23-1.65-1.26-2.01-2.14-.89-2.16-1.58-4.4-2.12-6.68-.15-.63-.94-.68-1.25-.17-1.25,2.04-2.49,4.09-3.74,6.13-.48,.79-1.01,2.09-1.85,2.49-1.16,.55-1.37-1.27-1.54-2.03-1-4.58-1.97-9.17-2.96-13.76-.2-.91-1.52-.53-1.32,.39,.65,3.01,1.29,6.01,1.94,9.02,.32,1.5,.65,3.01,.97,4.51,.2,.92,.36,1.97,.97,2.71,1.28,1.56,3.02,.41,3.94-.92,1.41-2.03,2.66-4.22,3.93-6.37,.57,2.17,1.27,4.35,2.24,6.33,.89,1.81,2.7,2.67,4.35,1.29,.91-.76,1.38-1.91,1.85-3,.53-1.23,1.04-2.47,1.51-3.72,1.06-2.82,1.94-5.7,2.67-8.63,.23-.91-1.09-1.29-1.32-.39Z" fill="#231f20"/></g></svg>