<?xml version="1.0" encoding="UTF-8"?><svg xmlns="http://www.w3.org/2000/svg" viewBox="0 0 35 35"><g id="Example_glyph"><g id="Line_2-2"><text transform="translate(8.75 27.99)" fill="#bcbcbc" font-family="ArialMT, Arial" font-size="35"><tspan x="0" y="0">x</tspan></text></g></g><g id="Artwork_glyph"><path d="M22.47,10.55c-1.53,2.17-3.13,4.26-4.77,6.31-1.18-2.11-2.31-4.26-3.36-6.46-.39-.82-1.54-.29-1.14,.54,1.13,2.39,2.36,4.71,3.64,6.99-2.43,2.99-4.97,5.87-7.62,8.6-.59,.6,.2,1.76,.79,1.15,2.62-2.7,5.13-5.53,7.54-8.47,1.61,2.77,3.32,5.45,5.15,8.04,.52,.73,1.49-.13,.97-.87-1.88-2.65-3.63-5.4-5.27-8.24,1.74-2.18,3.45-4.4,5.07-6.69,.5-.71-.52-1.6-1.01-.89Z" fill="#231f20"/></g></svg>