<?xml version="1.0" encoding="UTF-8"?><svg xmlns="http://www.w3.org/2000/svg" viewBox="0 0 35 35"><g id="Example_glyph"><g id="Line_2-2"><text transform="translate(8.75 27.99)" fill="#bcbcbc" font-family="ArialMT, Arial" font-size="35"><tspan x="0" y="0">y</tspan></text></g></g><g id="Artwork_glyph"><path d="M11.31,10.32c-.62,1.8-1.19,3.83-.11,5.58,.77,1.26,2.14,2.06,3.61,2.17,4.17,.32,5.49-3.78,5.9-7.13h-1.25c.43,5.64,.86,11.29,1.28,16.93,.19,2.48,.03,6.25-3.46,5.81-2.47-.31-4.64-2.31-5.92-4.33-.43-.68-1.51-.05-1.08,.63,1.36,2.17,3.5,4.12,6.03,4.78s4.81-.51,5.53-3.03c.42-1.48,.21-3.06,.1-4.57-.13-1.78-.27-3.56-.4-5.34-.27-3.63-.55-7.27-.82-10.9-.06-.82-1.15-.79-1.25,0-.3,2.52-1.08,5.91-4.28,5.9-1.21,0-2.39-.64-2.97-1.71-.78-1.42-.17-3.07,.32-4.48,.26-.76-.94-1.09-1.21-.33h0Z" fill="#231f20"/></g></svg>