<?xml version="1.0" encoding="UTF-8"?><svg xmlns="http://www.w3.org/2000/svg" viewBox="0 0 35 35"><g id="Example_glyph"><g id="Line_2-2"><text transform="translate(8.75 27.99)" fill="#bcbcbc" font-family="ArialMT, Arial" font-size="35"><tspan x="0" y="0">z</tspan></text></g></g><g id="Artwork_glyph"><path d="M29.91,26.08c-6.17,.57-12.36,.59-18.53,.1,4.2-3.73,8.21-8.02,11.39-12.9,.56-.86,1.01-2.14,.12-2.94-.88-.78-2.6-.46-3.61-.42-3.07,.14-6.09,.86-8.97,2.09-.75,.32-.43,1.72,.33,1.4,2.37-1.01,4.84-1.7,7.35-1.95,.61-.06,1.22-.1,1.84-.11,.56-.01,1.3-.14,1.84,.03,.49,.15,.5,.27,.25,.82-.12,.28-.36,.53-.53,.77-.41,.59-.84,1.16-1.27,1.73-3.22,4.26-6.84,8.1-10.78,11.45-.5,.43-.33,1.29,.32,1.35,6.74,.64,13.51,.65,20.25,.02,.8-.07,.8-1.52,0-1.45Z" fill="#231f20"/></g></svg>