<?xml version="1.0" encoding="UTF-8"?><svg xmlns="http://www.w3.org/2000/svg" viewBox="0 0 35 35"><g id="Example_glyph"><g id="Line_4-2"><text transform="translate(11.66 27.99)" fill="#bcbcbc" font-family="ArialMT, Arial" font-size="35"><tspan x="0" y="0">{</tspan></text></g></g><g id="Artwork_glyph"><path d="M24.46,31.1c-.55,2.21-2.99,3.41-4.94,2.09-1.91-1.29-1.83-4.03-1.51-6.05,.47-2.97,1.47-7.33-1.86-9,.04-1.33-.21-2.73-.36-3.94-.29-2.24-.65-4.63,.13-6.82,.81-2.29,3.29-4.15,5.61-2.66,.68,.44,1.31-.66,.63-1.1-2.43-1.57-5.42-.32-6.82,2.05-1.9,3.23-.87,7.03-.56,10.52,.04,.5,.09,1.04,.1,1.57-.87-.08-1.76,.17-2.37,.86-.77,.88-.73,2.4,.38,2.98,1.19,.62,2.43-.26,2.88-1.38,.09-.22,.16-.45,.22-.69,1.77,1.31,1.42,4.02,1.07,5.92-.52,2.88-1.08,6.57,1.56,8.62,2.62,2.04,6.29,.52,7.06-2.63,.2-.79-1.01-1.13-1.21-.34Zm-10.46-11.43c-.65-.35-.54-.41,.06-.6,.23-.07,.47-.07,.7-.05-.02,.1-.02,.21-.05,.31-.15,.62-.08,.68-.72,.33Z" fill="#231f20"/></g></svg>