<?xml version="1.0" encoding="UTF-8"?><svg xmlns="http://www.w3.org/2000/svg" viewBox="0 0 35 35"><g id="Example_glyph"><g id="Line_4-2"><text transform="translate(11.66 27.99)" fill="#bcbcbc" font-family="ArialMT, Arial" font-size="35"><tspan x="0" y="0">}</tspan></text></g></g><g id="Artwork_glyph"><path d="M21.89,13.99c-.23-.53-1.02-.36-1.14,.16-.18,.77-.36,1.55-.54,2.32-.6,.23-1.41,.02-1.81-.76-.51-.99-.39-2.23-.36-3.32,.04-2.08,.3-4.3,.05-6.37-.4-3.37-4.24-4.44-6.05-1.59-.45,.71,.63,1.38,1.08,.67,.95-1.5,3-1.34,3.61,.42,.4,1.16,.14,2.73,.12,3.94-.04,2.05-.49,4.66,.33,6.59,.59,1.4,1.7,1.91,2.72,1.8-.61,2.63-1.22,5.27-1.83,7.9-.38,1.62-.66,3.33-1.23,4.89-.65,1.77-2.29,3.73-4.27,2.77-.73-.35-1.36,.79-.63,1.15,3.51,1.7,5.78-2.03,6.56-5.14,1.02-4.04,1.92-8.13,2.84-12.2,.77-.68,1.15-1.83,.56-3.23Z" fill="#231f20"/></g></svg>