<?xml version="1.0" encoding="UTF-8"?><svg xmlns="http://www.w3.org/2000/svg" viewBox="0 0 35 35"><g id="Example_glyph"><g id="Line_4-2"><text transform="translate(7.28 27.99)" fill="#bcbcbc" font-family="ArialMT, Arial" font-size="35"><tspan x="0" y="0">~</tspan></text></g></g><g id="Artwork_glyph"><path d="M25.15,13.73c-1.18,1.37-2.71,2.25-4.35,2.45-1.83,.23-3.37-.5-4.98-1.44-1.45-.84-3.06-1.66-4.7-1.25-1.33,.33-2.51,1.54-2.73,3.19-.13,.97,1.1,1.39,1.23,.41,.3-2.25,2.4-2.41,3.87-1.86,1.61,.6,3,1.82,4.65,2.28,2.83,.78,5.84-.27,7.91-2.69,.59-.69-.31-1.78-.9-1.09Z" fill="#231f20"/></g></svg>