<?xml version="1.0" encoding="UTF-8"?><svg xmlns="http://www.w3.org/2000/svg" viewBox="0 0 35 35"><g id="Example_glyph"><g id="Line_4-2"><text transform="translate(7.28 27.99)" fill="#bcbcbc" font-family="ArialMT, Arial" font-size="35"><tspan x="0" y="0">×</tspan></text></g></g><g id="Artwork_glyph"><path d="M23.92,21.12c-1.8-2.02-3.59-4.04-5.4-6.05l5.07-5.13c.58-.59-.3-1.52-.88-.93-1.68,1.7-3.37,3.4-5.05,5.11-1.77-1.93-3.62-3.77-5.74-5.26-.67-.47-1.3,.67-.63,1.14,2.02,1.42,3.78,3.19,5.47,5.03-1.82,1.83-3.63,3.67-5.45,5.5-.58,.59,.3,1.52,.88,.93,1.81-1.83,3.62-3.66,5.43-5.49,1.82,2.01,3.61,4.05,5.42,6.07,.55,.62,1.44-.32,.88-.93Z" fill="#231f20"/></g></svg>