<?xml version="1.0" encoding="UTF-8"?><svg xmlns="http://www.w3.org/2000/svg" viewBox="0 0 35 35"><g id="Example_glyph"><g id="Line_4-2"><text transform="translate(7.9 27.99)" fill="#bcbcbc" font-family="ArialMT, Arial" font-size="35"><tspan x="0" y="0">รท</tspan></text></g></g><g id="Artwork_glyph"><path d="M25.12,15.56c-5.08-.27-10.16-.54-15.24-.81-.88-.05-.87,1.2,0,1.25,5.08,.27,10.16,.54,15.24,.81,.88,.05,.87-1.2,0-1.25Z" fill="#231f20"/><path d="M18.78,20.66c-.04-.23-.17-.43-.32-.61-.15-.18-.36-.3-.58-.37-.25-.09-.53-.08-.78-.02-.26,.06-.48,.2-.69,.36-.12,.09-.18,.3-.18,.44,0,.15,.07,.34,.18,.44,.05,.04,.1,.08,.16,.11,0,0,0,.02,0,.03,.01,.1,.02,.2,.06,.3,.07,.17,.12,.26,.23,.4,.12,.15,.33,.28,.52,.32,.28,.06,.55,.02,.8-.12,.1-.05,.19-.12,.26-.2,.08-.08,.15-.17,.21-.27,.05-.09,.1-.2,.11-.3,.03-.18,.03-.32,0-.5Z" fill="#231f20"/><path d="M18.54,10.16c-.02-.15-.04-.31-.09-.46-.08-.19-.16-.36-.31-.51-.13-.13-.31-.24-.49-.27-.24-.05-.49-.03-.71,.1-.25,.15-.41,.41-.42,.7,0,0,0,0,0,.01-.02,0-.03,.01-.05,.02-.15,.1-.26,.21-.35,.36-.15,.24-.19,.52-.16,.79,.05,.34,.24,.62,.53,.8,.29,.17,.62,.2,.95,.14,.14-.03,.27-.08,.4-.15,.12-.07,.24-.16,.33-.27,.14-.16,.22-.31,.29-.51,.06-.14,.08-.3,.09-.45,.01-.1,0-.2,0-.31Z" fill="#231f20"/></g></svg>