<?xml version="1.0" encoding="UTF-8"?><svg xmlns="http://www.w3.org/2000/svg" viewBox="0 0 35 35"><g id="Example_glyph"><g id="Line_3-2"><text transform="translate(12.64 27.99)" fill="#bcbcbc" font-family="ArialMT, Arial" font-size="35"><tspan x="0" y="0">!</tspan></text></g></g><g id="Artwork_glyph"><path d="M17.98,3.37c-1.9,5.84-2.17,12.09-.8,18.07,.18,.78,1.38,.45,1.21-.33-1.32-5.77-1.04-11.78,.8-17.41,.25-.77-.96-1.1-1.21-.33Z" fill="#231f20"/><path d="M18.93,25.7c-.23-.35-.49-.72-.89-.9-.28-.12-.57-.17-.87-.1-.27,.07-.49,.25-.65,.48-.02,.03-.03,.06-.04,.08-.07,.05-.14,.12-.18,.19-.08,.13-.11,.33-.06,.48,.01,.03,.03,.06,.05,.08,0,.07,0,.14,0,.2,0,.37,.03,.79,.25,1.11,.16,.23,.37,.4,.64,.48,.21,.06,.45,.06,.66,0,.03,0,.05-.02,.07-.03,0,0,.01,0,.02,.01,.57,.2,1.13-.24,1.31-.76,.15-.46-.05-.95-.3-1.33Z" fill="#231f20"/></g></svg>