<?xml version="1.0" encoding="UTF-8"?><svg xmlns="http://www.w3.org/2000/svg" viewBox="0 0 35 35"><g id="Example_glyph"><g id="Line_3-2"><text transform="translate(11.29 27.99)" fill="#bcbcbc" font-family="ArialMT, Arial" font-size="35"><tspan x="0" y="0">&quot;</tspan></text></g></g><g id="Artwork_glyph"><path d="M15.35,3.39c-.18-.79-1.38-.46-1.21,.33,.55,2.44,.32,4.98-.61,7.29-.13,.31,.14,.69,.44,.77,.36,.1,.64-.12,.77-.44,1.02-2.52,1.21-5.31,.61-7.96Z" fill="#231f20"/><path d="M21.12,3.65c.03-.39-.31-.72-.62-.72-.36,0-.6,.33-.62,.72-.17,2.45-.11,4.9,.16,7.34,.04,.38,.26,.72,.62,.72,.3,0,.67-.33,.62-.72-.28-2.43-.33-4.89-.16-7.34Z" fill="#231f20"/></g></svg>