<?xml version="1.0" encoding="UTF-8"?><svg xmlns="http://www.w3.org/2000/svg" viewBox="0 0 35 35"><g id="Example_glyph"><g id="Line_3-2"><text transform="translate(7.77 27.99)" fill="#bcbcbc" font-family="ArialMT, Arial" font-size="35"><tspan x="0" y="0">#</tspan></text></g></g><g id="Artwork_glyph"><path d="M26.78,19.08c-2.24-.18-4.49-.28-6.73-.34,.18-1.21,.38-2.42,.63-3.61,.2-.95,.42-1.88,.66-2.81,1.63,0,3.26-.02,4.88-.05,.64-.01,.64-1.24,0-1.22-1.51,.04-3.02,.05-4.53,.06,.69-2.42,1.52-4.79,2.5-7.06,.3-.69-.55-1.31-.85-.62-1.06,2.46-1.96,5.03-2.69,7.67-2,0-4-.04-6-.1,.58-2.47,1.23-4.91,1.98-7.31,.23-.74-.73-1.05-.95-.33-.78,2.5-1.46,5.04-2.05,7.61-1.61-.06-3.22-.12-4.83-.22-.64-.04-.64,1.19,0,1.22,1.52,.09,3.04,.15,4.56,.21-.47,2.17-.87,4.37-1.21,6.58-1.18,.04-2.36,.08-3.54,.16-.63,.04-.64,1.26,0,1.22,1.12-.07,2.24-.11,3.36-.15-.29,2.02-.53,4.05-.7,6.1-.07,.78,.92,.78,.99,0,.17-2.06,.42-4.11,.71-6.15,1.97-.06,3.95-.05,5.92-.02-.32,2.48-.53,4.98-.74,7.48-.07,.78,.92,.78,.99,0,.21-2.49,.42-4.99,.75-7.46,2.3,.06,4.6,.16,6.9,.35,.64,.05,.63-1.17,0-1.22Zm-13.64-.37c.34-2.19,.75-4.36,1.22-6.51,1.98,.06,3.97,.09,5.95,.1-.21,.82-.41,1.65-.59,2.49-.27,1.29-.49,2.6-.67,3.91-1.97-.04-3.94-.05-5.91,0Z" fill="#231f20"/></g></svg>