<?xml version="1.0" encoding="UTF-8"?><svg xmlns="http://www.w3.org/2000/svg" viewBox="0 0 35 35"><g id="Example_glyph"><g id="Line_4-2"><text transform="translate(7.77 27.99)" fill="#bcbcbc" font-family="ArialMT, Arial" font-size="35"><tspan x="0" y="0">$</tspan></text></g></g><g id="Artwork_glyph"><path d="M19.08,13.93s-.1-.03-.15-.04c.08-3.62,.09-7.25,.01-10.87,1.9,1.09,3.21,3.03,4.37,4.75,.45,.68,1.6,.05,1.15-.63-1.39-2.07-3.15-4.45-5.53-5.56,0-.04,0-.07,0-.11-.02-.66-.92-.77-1.22-.34-.69-.17-1.42-.24-2.2-.16-3.44,.32-6.1,3.31-5.92,6.52,.22,3.79,3.29,5.96,6.87,7.01,.37,.11,.75,.21,1.14,.31-.09,3.61-.27,7.21-.51,10.81-2.63-.49-4.9-2.41-4.59-5.42,.08-.8-1.25-.79-1.33,0-.35,3.41,2.39,6.18,5.82,6.75-.1,1.35-.18,2.7-.31,4.04-.07,.8,1.25,.79,1.33,0,.12-1.31,.2-2.62,.3-3.94,3.51-.01,6.8-2.39,7.23-5.75,.51-4.02-2.77-6.3-6.44-7.38Zm-6.4-2.7c-1.56-1.5-2.26-3.85-1.45-5.84,.89-2.19,3.53-3.64,5.99-3.07,.14,.03,.26,.09,.39,.13,.09,3.69,.08,7.39,0,11.08-1.79-.49-3.61-1.02-4.93-2.29Zm10.86,11.84c-1.12,1.84-3.14,2.67-5.15,2.67,.24-3.52,.42-7.04,.52-10.57,1.32,.39,2.61,.88,3.65,1.75,1.83,1.53,2.19,4.16,.98,6.14Z" fill="#231f20"/></g></svg>