<?xml version="1.0" encoding="UTF-8"?><svg xmlns="http://www.w3.org/2000/svg" viewBox="0 0 35 35"><g id="Example_glyph"><g id="Line_4-2"><text transform="translate(1.94 27.99)" fill="#bcbcbc" font-family="ArialMT, Arial" font-size="35"><tspan x="0" y="0">%</tspan></text></g></g><g id="Artwork_glyph"><path d="M23.14,3.23c-4.12,7.94-8.25,15.89-12.37,23.83-.37,.7,.71,1.33,1.08,.62,4.12-7.94,8.25-15.89,12.37-23.83,.37-.7-.71-1.33-1.08-.62Z" fill="#231f20"/><path d="M30.79,20.77c-.45-2.64-2.65-4.76-5.18-5.12-.35-.05-.69,.09-.79,.47-.04,.15-.02,.34,.06,.5-1.62,.51-3.06,1.63-3.79,3.25-.98,2.16-.7,4.95,1.01,6.63,1.61,1.59,4.14,2.01,6.06,.78,2.1-1.35,3.06-4.03,2.64-6.51Zm-2.58,4.76c-1.3,1.33-3.2,1.47-4.71,.44-1.56-1.06-2.03-3.18-1.47-4.96,.63-2.03,2.63-3.28,4.61-3.34,.15,0,.26-.06,.36-.14,1.03,.56,1.87,1.46,2.29,2.62,.66,1.82,.26,4-1.08,5.38Z" fill="#231f20"/><path d="M13.52,4.95c.38-.21,.59-.71,.17-1.08-1.79-1.57-4.47-1.8-6.54-.61-2.17,1.24-3.33,3.68-3.16,6.08,.15,2.27,1.37,4.73,3.59,5.73,2.21,1,4.68,.04,5.92-1.92,1.6-2.52,.87-5.55,.02-8.2Zm-.72,6.21c-.44,1.64-1.99,3.27-3.89,2.88-1.78-.37-2.91-2.11-3.31-3.72-.47-1.9,.02-3.95,1.53-5.3,1.31-1.17,3.3-1.45,4.83-.63-.04,.12-.06,.26,0,.42,.67,2.03,1.42,4.22,.84,6.36Z" fill="#231f20"/></g></svg>