<?xml version="1.0" encoding="UTF-8"?><svg xmlns="http://www.w3.org/2000/svg" viewBox="0 0 35 35"><g id="Example_glyph"><g id="Line_3-2"><text transform="translate(5.83 27.99)" fill="#bcbcbc" font-family="ArialMT, Arial" font-size="35"><tspan x="0" y="0">&amp;</tspan></text></g></g><g id="Artwork_glyph"><path d="M27.99,26.81c-1.8-.81-3.46-1.77-5.05-2.82,.18-.08,.37-.14,.54-.23,2.55-1.27,4.12-3.85,2.62-6.24-.46-.73-1.75-.08-1.29,.65,1.53,2.43-.76,3.98-3.26,4.87-2.5-1.8-4.78-3.82-6.97-5.91,1.12-.43,2.23-.84,3.03-1.4,2-1.39,3.33-3.46,3.74-5.64,.37-1.98,.06-4.44-1.61-5.96-1.94-1.76-5.32-1.26-7.63-.37-2.47,.96-4.43,2.88-4.74,5.24-.35,2.62,1.64,4.63,3.52,6.48,.44,.43,.88,.86,1.32,1.29-2.18,.99-4.13,2.55-3.79,4.88,.33,2.21,2.7,3.56,5.12,3.83,1.77,.2,3.54-.09,5.27-.39,.85-.15,1.7-.31,2.54-.54,1.84,1.27,3.78,2.42,5.89,3.38,.85,.38,1.61-.72,.75-1.11ZM9.14,8.09c.58-1.37,1.83-2.43,3.34-3.07,1.5-.64,3.88-1.2,5.46-.49,2.69,1.2,2.32,5.06,1.39,7.05-1.12,2.4-3.22,3.55-5.74,4.6-.14-.14-.28-.27-.42-.41-2.16-2.11-5.33-4.58-4.03-7.68Zm9.28,15.75c-1.76,.31-3.7,.66-5.48,.23-1.91-.46-3.56-1.87-2.95-3.7,.43-1.29,1.72-2.06,3.17-2.68,2.13,2.05,4.35,4.04,6.76,5.84-.54,.14-1.06,.25-1.5,.32Z" fill="#231f20"/></g></svg>