<?xml version="1.0" encoding="UTF-8"?><svg xmlns="http://www.w3.org/2000/svg" viewBox="0 0 35 35"><g id="Example_glyph"><g id="Line_4-2"><text transform="translate(10.69 27.99)" fill="#bcbcbc" font-family="ArialMT, Arial" font-size="35"><tspan x="0" y="0">*</tspan></text></g></g><g id="Artwork_glyph"><path d="M23.3,5.8c-1.76,.63-3.56,1.13-5.38,1.52,.49-1.29,.91-2.61,1.24-3.96,.21-.86-1.1-1.23-1.31-.37-.36,1.49-.83,2.95-1.39,4.37-.93-.8-1.83-1.64-2.63-2.58-.58-.67-1.53,.31-.96,.97,.64,.74,1.33,1.42,2.05,2.08-.65,.09-1.31,.18-1.97,.24-.86,.08-.87,1.46,0,1.38,.91-.08,1.82-.19,2.73-.33-.47,1.02-.98,2.03-1.56,2.99-.46,.76,.72,1.45,1.17,.69,.63-1.05,1.18-2.14,1.69-3.25,1.32,.97,2.73,1.82,4.22,2.51,.33,.16,.73,.1,.93-.25,.17-.3,.09-.79-.24-.94-1.32-.62-2.57-1.37-3.75-2.22,1.87-.4,3.72-.91,5.53-1.55,.82-.29,.47-1.62-.36-1.33Z" fill="#231f20"/></g></svg>