<?xml version="1.0" encoding="UTF-8"?><svg xmlns="http://www.w3.org/2000/svg" viewBox="0 0 35 35"><g id="Example_glyph"><g id="Line_4-2"><text transform="translate(7.28 27.99)" fill="#bcbcbc" font-family="ArialMT, Arial" font-size="35"><tspan x="0" y="0">+</tspan></text></g></g><g id="Artwork_glyph"><path d="M25.14,15.36c-2.28-.01-4.56-.02-6.84-.03,.04-2.43,.07-4.86,.11-7.29,.01-.88-1.34-.88-1.36,0-.04,2.43-.07,4.86-.11,7.29-2.35-.01-4.7-.02-7.05-.03-.87,0-.87,1.36,0,1.36,2.34,.01,4.69,.02,7.03,.03-.03,2.19-.07,4.39-.1,6.58-.01,.88,1.34,.88,1.36,0,.03-2.19,.07-4.39,.1-6.58,2.29,.01,4.57,.02,6.86,.03,.87,0,.87-1.36,0-1.36Z" fill="#231f20"/></g></svg>