<?xml version="1.0" encoding="UTF-8"?><svg xmlns="http://www.w3.org/2000/svg" viewBox="0 0 35 35"><g id="Example_glyph"><g id="Line_3-2"><text transform="translate(12.64 27.99)" fill="#bcbcbc" font-family="ArialMT, Arial" font-size="35"><tspan x="0" y="0">,</tspan></text></g></g><g id="Artwork_glyph"><path d="M19.25,27.65c-.12-.62-.4-1.35-.89-1.77-.6-.51-1.5-.53-1.98,.15-.45,.64-.13,1.52,.61,1.76,.35,.11,.7,.03,.96-.17,.04,.12,.07,.23,.1,.36,.04,.22,.05,.61,0,.82-.03,.14-.07,.28-.11,.36-.03,.06-.06,.12-.1,.18-.01,.02-.02,.03-.03,.05,0,0-.03,.04-.05,.06-.05,.05-.1,.1-.15,.15-.02,.02-.05,.04-.08,.07,0,0-.02,.01-.03,.02-.07,.04-.14,.08-.21,.12,0,0-.02,0-.03,.02-.02,0-.08,.03-.09,.04-.06,.02-.13,.03-.19,.05,0,0-.1,.01-.13,.01-.04,0-.08,0-.12,0,0,0,0,0,0,0,0,0,0,0,0,0-.09-.02-.17-.04-.25-.07-.32-.12-.69,.13-.77,.44-.1,.35,.12,.65,.44,.77,1.13,.43,2.46-.3,2.92-1.36,.29-.65,.32-1.35,.19-2.05Z" fill="#231f20"/></g></svg>