<?xml version="1.0" encoding="UTF-8"?><svg xmlns="http://www.w3.org/2000/svg" viewBox="0 0 35 35"><g id="Example_glyph"><g id="Line_3-2"><text transform="translate(12.64 27.99)" fill="#bcbcbc" font-family="ArialMT, Arial" font-size="35"><tspan x="0" y="0">.</tspan></text></g></g><g id="Artwork_glyph"><path d="M18.68,26.39c0-.11-.01-.23-.04-.33-.08-.25-.25-.47-.46-.61,0,0,0-.01-.02-.02-.21-.25-.52-.43-.85-.43-.45,0-.83,.36-.84,.8,0,0-.02,.01-.02,.02-.06,.14-.09,.25-.11,.39,0,.02-.02,.04-.02,.05-.02,.13-.04,.25-.02,.38,.02,.19,.05,.33,.14,.5,.1,.21,.28,.38,.47,.51,.19,.13,.43,.19,.66,.2,.29,.02,.56-.1,.77-.28,.34-.28,.44-.77,.35-1.2Z" fill="#231f20"/></g></svg>