<?xml version="1.0" encoding="UTF-8"?><svg xmlns="http://www.w3.org/2000/svg" viewBox="0 0 35 35"><g id="Example_glyph"><g id="Line_3-2"><text transform="translate(7.77 27.99)" fill="#bcbcbc" font-family="ArialMT, Arial" font-size="35"><tspan x="0" y="0">0</tspan></text></g></g><g id="Artwork_glyph"><path d="M23.93,6.83c-1.01-1.92-2.62-3.24-4.5-3.33-.12,0-.22,.03-.31,.09-.07-.38-.35-.73-.76-.64-3.54,.84-6.68,3.74-8.1,7.84-1.43,4.13-1.03,8.98,1.22,12.55,1.88,3,6.04,6.17,9.11,3.86,1.51-1.14,2.22-3.43,2.84-5.35,.78-2.4,1.32-4.93,1.56-7.5,.24-2.54,.1-5.32-1.06-7.52Zm-.13,6.71c-.13,2.14-.55,4.28-1.1,6.31-.49,1.8-1.07,3.93-2.13,5.37-2.22,3-6.27-.11-7.9-2.49-2.03-2.98-2.52-7.11-1.46-10.74,1.16-4.01,4.13-6.77,7.48-7.57,.06-.01,.1-.05,.15-.08,.04,.34,.23,.66,.59,.67,3.51,.17,4.59,4.99,4.38,8.52Z" fill="#231f20"/></g></svg>