<?xml version="1.0" encoding="UTF-8"?><svg xmlns="http://www.w3.org/2000/svg" viewBox="0 0 35 35"><g id="Example_glyph"><g id="Line_3-2"><text transform="translate(7.77 27.99)" fill="#bcbcbc" font-family="ArialMT, Arial" font-size="35"><tspan x="0" y="0">2</tspan></text></g></g><g id="Artwork_glyph"><path d="M25.91,25.81c-4.28,.21-8.56,.41-12.85,.62,3.71-1.85,6.94-4.79,9.24-8.49,1.59-2.56,3.1-5.83,2.93-9-.17-3.12-2.02-5.47-4.88-5.95-3.49-.59-7.26,.66-10.2,2.66-.68,.46-.05,1.64,.63,1.17,2.86-1.94,7.27-3.6,10.6-2.15,3.91,1.7,2.57,7.1,1.14,10.17-2.77,5.94-7.96,10.31-13.92,11.82-.68,.17-.54,1.37,.17,1.33,5.71-.27,11.42-.55,17.13-.82,.8-.04,.81-1.4,0-1.36Z" fill="#231f20"/></g></svg>