<?xml version="1.0" encoding="UTF-8"?><svg xmlns="http://www.w3.org/2000/svg" viewBox="0 0 35 35"><g id="Example_glyph"><g id="Line_3-2"><text transform="translate(7.77 27.99)" fill="#bcbcbc" font-family="ArialMT, Arial" font-size="35"><tspan x="0" y="0">3</tspan></text></g></g><g id="Artwork_glyph"><path d="M21.97,14.59c-.46-.42-.97-.77-1.5-1.06,.7-.39,1.38-.83,2.03-1.34,1.85-1.47,3.12-4.38,1.24-6.6-1.6-1.89-4.21-2.62-6.37-2.65-2.4-.04-4.77,.83-6.75,2.5-.66,.56-.03,1.89,.63,1.33,3.08-2.61,7.32-3.11,10.65-.89,.88,.58,1.79,1.49,1.47,2.87-.3,1.3-1.36,2.06-2.26,2.67-.85,.58-1.75,1.05-2.67,1.43-1.34-.19-2.7,.13-3.87,1.13-.45,.38-.36,1.54,.32,1.43,1.24-.19,2.48-.52,3.68-.98,1.24,.26,2.43,1.05,3.37,2.13,.84,.97,1.61,2.15,2.13,3.43,.72,1.76,.32,3.18-1.06,4.1-2.12,1.41-4.92,2.77-7.36,2.19-2.26-.54-4.25-2.48-5.13-5.11-.3-.9-1.51-.51-1.21,.41,.84,2.51,2.4,4.51,4.44,5.58,2.44,1.28,4.94,.77,7.35-.39,1.89-.91,4.63-2.01,4.61-5.05-.02-2.75-2.06-5.57-3.75-7.13Z" fill="#231f20"/></g></svg>