<?xml version="1.0" encoding="UTF-8"?><svg xmlns="http://www.w3.org/2000/svg" viewBox="0 0 35 35"><g id="Example_glyph"><g id="Line_3-2"><text transform="translate(7.77 27.99)" fill="#bcbcbc" font-family="ArialMT, Arial" font-size="35"><tspan x="0" y="0">4</tspan></text></g></g><g id="Artwork_glyph"><path d="M28.04,17.11c-2.23,.18-4.47,.35-6.7,.53,.02-2.1,.04-4.21,.06-6.31,0-.82-1.1-.82-1.11,0-.02,2.13-.04,4.27-.06,6.4-3.8,.3-7.59,.6-11.39,.9,3.73-5.21,7.79-10.1,12.17-14.61,.53-.55-.26-1.45-.79-.9-4.71,4.85-9.07,10.13-13.03,15.8-.27,.39-.14,1.13,.39,1.09,4.21-.33,8.42-.66,12.64-1-.02,2.77-.05,5.53-.07,8.3,0,.82,1.1,.82,1.11,0,.03-2.8,.05-5.59,.08-8.39,2.24-.18,4.47-.35,6.71-.53,.71-.06,.72-1.33,0-1.27Z" fill="#231f20"/></g></svg>