<?xml version="1.0" encoding="UTF-8"?><svg xmlns="http://www.w3.org/2000/svg" viewBox="0 0 35 35"><g id="Example_glyph"><g id="Line_3-2"><text transform="translate(7.77 27.99)" fill="#bcbcbc" font-family="ArialMT, Arial" font-size="35"><tspan x="0" y="0">5</tspan></text></g></g><g id="Artwork_glyph"><path d="M27.89,17.2c-.9-3.34-3.92-5.88-7.11-6.71-3.18-.82-6.52,.08-9,2.18,.5-2.85,1.19-5.66,2.07-8.42,3.55,0,7.09-.02,10.64-.03,.8,0,.81-1.29,0-1.29-3.74,0-7.49,.02-11.23,.03-.48,0-.67,.45-.58,.82-1.11,3.44-1.93,6.95-2.43,10.54-.08,.56,.59,1.18,1.04,.63,2.39-2.94,6.25-4.24,9.83-3.02,3.45,1.18,6.9,5.04,5.39,8.98-1.52,3.96-6.1,5.19-9.82,5.54-3.45,.33-8.46-.65-8.74-5.1-.05-.82-1.3-.83-1.25,0,.22,3.46,3.12,5.76,6.27,6.3,3.48,.6,7.81-.12,10.88-1.92,2.89-1.69,4.99-5.05,4.05-8.53Z" fill="#231f20"/></g></svg>