<?xml version="1.0" encoding="UTF-8"?><svg xmlns="http://www.w3.org/2000/svg" viewBox="0 0 35 35"><g id="Example_glyph"><g id="Line_3-2"><text transform="translate(7.77 27.99)" fill="#bcbcbc" font-family="ArialMT, Arial" font-size="35"><tspan x="0" y="0">6</tspan></text></g></g><g id="Artwork_glyph"><path d="M24.49,18.31c-2.57-3.43-7.77-4.81-12.39-4.06,1.17-3.7,3.12-7.23,5.59-10.45,.55-.72-.82-1.38-1.37-.67-2.74,3.57-4.85,7.52-6.03,11.65-1.02,3.59-1.1,7.62,1.9,10.6,2.5,2.48,6.76,3.31,10.13,1.5,3.45-1.85,4.29-5.73,2.16-8.58Zm-9.27,7.53c-4.3-2.16-4.44-6.81-3.46-10.44,.17,.11,.39,.18,.66,.13,4.44-.75,10.36,1,11.53,5.03,1.2,4.15-4.38,7.46-8.73,5.27Z" fill="#231f20"/></g></svg>