<?xml version="1.0" encoding="UTF-8"?><svg xmlns="http://www.w3.org/2000/svg" viewBox="0 0 35 35"><g id="Example_glyph"><g id="Line_3-2"><text transform="translate(7.77 27.99)" fill="#bcbcbc" font-family="ArialMT, Arial" font-size="35"><tspan x="0" y="0">7</tspan></text></g></g><g id="Artwork_glyph"><path d="M24.93,13.22c-1.02,.01-2.04,.02-3.06,.03,.54-1.42,1.07-2.85,1.54-4.28,.27-.83,.54-1.66,.79-2.49,.17-.58,.49-1.25,.46-1.86-.06-1.13-1.11-1.23-2.14-1.25-4.14-.07-8.28-.08-12.41-.11-.92,0-.92,1.28,0,1.29,3.45,.03,6.9,.06,10.34,.09,.38,0,2.3-.21,2.59,.02,.36,.29-.23,1.51-.34,1.9-.43,1.39-.88,2.77-1.37,4.14-.31,.87-.65,1.72-.98,2.58-2.17,.02-4.34,.04-6.51,.07-.92,0-.92,1.3,0,1.29,2-.02,4.01-.04,6.01-.06-1.71,4.22-3.7,8.33-5.98,12.33-.42,.73,.81,1.39,1.23,.65,2.4-4.2,4.48-8.55,6.26-12.99,1.19-.01,2.38-.02,3.58-.04,.92,0,.92-1.3,0-1.29Z" fill="#231f20"/></g></svg>