<?xml version="1.0" encoding="UTF-8"?><svg xmlns="http://www.w3.org/2000/svg" viewBox="0 0 35 35"><g id="Example_glyph"><g id="Line_3-2"><text transform="translate(7.77 27.99)" fill="#bcbcbc" font-family="ArialMT, Arial" font-size="35"><tspan x="0" y="0">8</tspan></text></g></g><g id="Artwork_glyph"><path d="M24.87,13.54c-.77-.86-1.81-1.24-2.84-1.52-.4-.11-.8-.21-1.2-.31,2.16-1.23,4.19-2.96,4.77-5.74,.14-.68-.54-1.05-.94-.79-.03-.11-.07-.21-.17-.31-1.71-1.73-3.99-2.28-6.24-1.94-1.14,.17-2.25,.54-3.32,1.02-1.12,.5-2.42,1.02-3.38,1.85-1.73,1.51-1.36,3.98,.59,4.95,1.22,.61,2.66,.81,3.95,1.15,.35,.09,.69,.18,1.04,.27-1.76,1.07-3.38,2.36-4.75,4.06-1.48,1.84-2.96,4.25-2.55,6.86,.35,2.24,2.1,3.94,4,4.51,2.36,.7,4.86-.17,6.95-1.4,2.11-1.24,4-3.11,4.91-5.64,.8-2.25,.8-5.21-.83-7.02Zm-12.05-3.99c-.45-.2-1.05-.56-1.16-1.17-.13-.69,.42-1.3,.86-1.63,.58-.43,1.25-.73,1.88-1.04,2.88-1.43,6.59-2.49,9.21,.15,.21,.22,.46,.22,.67,.12-.77,2.74-3.19,4.07-5.39,5.21-.36-.09-.73-.19-1.09-.29-1.62-.42-3.44-.67-4.98-1.36Zm12,9.52c-.64,2.97-2.89,5.01-5.25,6.25-2.35,1.24-5.47,1.87-7.5-.41-2.17-2.43-.47-5.6,1.2-7.68,1.67-2.08,3.66-3.35,5.8-4.55,.51,.13,1.02,.27,1.54,.4,1.14,.3,2.51,.48,3.38,1.45,1.04,1.15,1.16,3.03,.83,4.54Z" fill="#231f20"/></g></svg>