<?xml version="1.0" encoding="UTF-8"?><svg xmlns="http://www.w3.org/2000/svg" viewBox="0 0 35 35"><g id="Example_glyph"><g id="Line_3-2"><text transform="translate(7.77 27.99)" fill="#bcbcbc" font-family="ArialMT, Arial" font-size="35"><tspan x="0" y="0">9</tspan></text></g></g><g id="Artwork_glyph"><path d="M25.43,4.31c.03-.68-.97-.83-1.2-.23-3.23-1.02-6.77-1.73-10.02-.43-2.05,.82-5.55,3.49-4.44,6.14,.49,1.17,1.8,1.37,2.92,1.26,1.84-.18,3.7-.63,5.48-1.12,1.65-.45,3.67-1,5.16-2.04-1.36,6.41-2.1,12.94-2.19,19.5-.01,.81,1.24,.81,1.25,0,.1-7.27,1-14.49,2.69-21.56,.19-.45,.32-.95,.34-1.52Zm-7.58,4.41c-1.29,.35-2.6,.65-3.91,.88-1.1,.19-3.57,.72-2.96-1.3,.67-2.2,3.17-3.56,5.28-3.95,2.59-.48,5.21,.16,7.68,.95-.02,.07-.03,.13-.05,.2-.96,2.02-4.09,2.7-6.03,3.23Z" fill="#231f20"/></g></svg>