<?xml version="1.0" encoding="UTF-8"?><svg xmlns="http://www.w3.org/2000/svg" viewBox="0 0 35 35"><g id="Example_glyph"><g id="Line_3-2"><text transform="translate(12.64 27.99)" fill="#bcbcbc" font-family="ArialMT, Arial" font-size="35"><tspan x="0" y="0">:</tspan></text></g></g><g id="Artwork_glyph"><path d="M18.29,10.14c-.1-.14-.2-.24-.37-.29-.15-.04-.35-.02-.48,.06-.13,.09-.25,.21-.29,.37-.03,.15-.04,.35,.06,.48-.24,.1-.46,.25-.58,.49-.13,.27-.17,.59-.07,.87,.1,.28,.27,.51,.52,.67,.25,.16,.57,.19,.86,.12,.57-.16,.9-.71,.95-1.27,.05-.57-.28-1.08-.61-1.51Z" fill="#231f20"/><path d="M18.4,25.74c-.39-.34-.89-.49-1.39-.37-.15,.04-.3,.16-.37,.29-.08,.13-.11,.33-.06,.48,.02,.05,.04,.08,.07,.13,0,.03-.02,.06-.03,.09-.04,.27-.05,.55,.05,.8,.04,.11,.09,.21,.16,.31,.11,.15,.21,.25,.37,.36,.24,.17,.54,.2,.82,.15,.28-.05,.49-.24,.65-.46,.14-.19,.2-.43,.22-.66,.04-.41-.17-.85-.47-1.12Z" fill="#231f20"/></g></svg>