<?xml version="1.0" encoding="UTF-8"?><svg xmlns="http://www.w3.org/2000/svg" viewBox="0 0 35 35"><g id="Example_glyph"><g id="Line_3-2"><text transform="translate(12.64 27.99)" fill="#bcbcbc" font-family="ArialMT, Arial" font-size="35"><tspan x="0" y="0">;</tspan></text></g></g><g id="Artwork_glyph"><path d="M19,11.01c-.06-.41-.26-.79-.56-1.07-.24-.22-.65-.25-.88,0-.06,.07-.11,.15-.14,.24-.06,.01-.11,.02-.17,.04-.38,.14-.66,.4-.8,.78-.13,.34-.05,.77,.16,1.06,.08,.11,.18,.21,.28,.29,.02,.07,.03,.14,.05,.21,.04,.19,.19,.33,.36,.41,.19,.08,.37,.06,.56-.03,.31-.16,.57-.39,.76-.68,.03-.05,.06-.1,.08-.15,.24-.32,.35-.7,.3-1.1Z" fill="#231f20"/><path d="M18.99,27.8c-.16-.6-.41-1.31-.95-1.67-.12-.14-.27-.25-.43-.36-.27-.18-.7-.06-.86,.22-.02,.03-.02,.06-.03,.09-.13,.08-.25,.18-.35,.31-.28,.39-.22,.95,.12,1.28,.32,.31,.83,.35,1.18,.1,.02,.07,.05,.15,.07,.23,.14,.51,.2,.9,.18,1.43,0,0,0,.1,0,.11,0,.03-.01,.07-.02,.1-.19-.13-.45-.17-.66-.03-.27,.18-.42,.56-.22,.86,.52,.78,1.66,.55,2.01-.26,.31-.72,.16-1.65-.03-2.39Z" fill="#231f20"/></g></svg>