<?xml version="1.0" encoding="UTF-8"?><svg xmlns="http://www.w3.org/2000/svg" viewBox="0 0 35 35"><g id="Example_glyph"><g id="Line_4-2"><text transform="translate(7.28 27.99)" fill="#bcbcbc" font-family="ArialMT, Arial" font-size="35"><tspan x="0" y="0">&gt;</tspan></text></g></g><g id="Artwork_glyph"><path d="M25.28,14.94c-5.47-1.39-10.59-3.98-15.07-7.63-.69-.56-1.36,.69-.68,1.25,4.12,3.35,8.8,5.82,13.76,7.31-1.88,1.04-3.85,1.89-5.78,2.78-2.55,1.18-5.09,2.36-7.64,3.54-.79,.37-.11,1.61,.68,1.25,2.55-1.18,5.09-2.36,7.64-3.54,2.45-1.13,4.96-2.18,7.25-3.64,.48-.31,.41-1.18-.16-1.32Z" fill="#231f20"/></g></svg>