<?xml version="1.0" encoding="UTF-8"?><svg xmlns="http://www.w3.org/2000/svg" viewBox="0 0 35 35"><g id="Example_glyph"><g id="Line_3-2"><text transform="translate(7.77 27.99)" fill="#bcbcbc" font-family="ArialMT, Arial" font-size="35"><tspan x="0" y="0">?</tspan></text></g></g><g id="Artwork_glyph"><path d="M17.72,2.95c-3.08-.15-5.49,1.37-7.49,3.45-.62,.65,.39,1.62,1.02,.97,2.15-2.25,4.89-3.73,8.15-2.76,2.88,.86,4.82,3.67,4.62,6.52-.1,1.33-.69,2.63-1.59,3.65-.95,1.08-2.15,1.63-3.49,2.17-2.44,.98-3.95,3.2-3.18,5.74,.26,.85,1.65,.49,1.39-.36-.35-1.15-.06-2.44,.87-3.28,.93-.85,2.32-1.06,3.41-1.68,1.96-1.1,3.42-3.03,3.87-5.15,.99-4.59-2.7-9.02-7.59-9.26Z" fill="#231f20"/><g><path d="M18.51,25.67c-.18-.4-.59-.69-1.01-.79-.4-.1-.82-.07-1.23,.02-.45-.12-.94,.01-1.19,.44,0,0,0,.02-.01,.03-.16,.09-.32,.17-.46,.27-.26,.19-.42,.55-.22,.86,.16,.25,.52,.4,.8,.25,.01,.02,.02,.05,.03,.07,.22,.38,.54,.74,.94,.94,.44,.22,.98,.3,1.45,.13,.47-.17,.8-.51,.98-.98,.15-.4,.11-.85-.07-1.24Z" fill="#231f20"/><path d="M17.38,26.21s0,0,0,0c0,0,0,0,0,0-.02-.04-.02-.02,0,.01Z" fill="#231f20"/></g></g></svg>