<?xml version="1.0" encoding="UTF-8"?><svg xmlns="http://www.w3.org/2000/svg" viewBox="0 0 35 35"><g id="Example_glyph"><g id="Line_3-2"><text transform="translate(-.26 27.99)" fill="#bcbcbc" font-family="ArialMT, Arial" font-size="35"><tspan x="0" y="0">@</tspan></text></g></g><g id="Artwork_glyph"><path d="M32.99,28.78c-.18-.84-1.49-.49-1.3,.36,.4,1.87-3.18,2.68-4.42,3.08-1.64,.53-3.31,.95-5.02,1.19-3.49,.5-7.11,.28-10.45-.87-3.38-1.17-6.31-3.2-7.36-6.75-.94-3.19-1.03-6.94-.78-10.23,.25-3.24,1.29-6.63,3.78-8.87,2.53-2.28,6.13-2.71,9.39-2.21,6,.93,13.04,5.18,12.4,12.09-.16,1.77-.97,3.44-2.3,4.63-1.32,1.17-3.54,1.92-5.17,.89-1.66-1.06-1.61-3.41-1.52-5.13,.03-.53,.08-1.05,.15-1.58,.43-1.57,.77-3.16,1.16-4.57,.23-.84-1.01-1.16-1.3-.36-.03,.09-.06,.19-.09,.29-.02-.03-.03-.05-.05-.08-1.23-1.27-2.98-.82-4.47-.29-1.92,.69-3.83,1.51-5.42,2.81-2.68,2.21-4.25,6.14-2.01,9.22,2.07,2.84,6.05,2.26,8.43,.16,.98-.87,1.71-1.97,2.29-3.17,.11,.97,.38,1.92,.95,2.73,2.02,2.84,6.14,1.9,8.29-.24,2.6-2.6,3-6.54,1.7-9.86-1.4-3.56-4.5-6.03-7.97-7.48-3.48-1.45-7.6-2.15-11.29-1.08-3.63,1.05-6.13,3.9-7.37,7.36-1.44,4.04-1.2,8.75-.61,12.94,.59,4.17,2.64,7.23,6.47,9.12,4.25,2.09,9.1,2.52,13.74,1.8,2.54-.4,5.03-1.13,7.4-2.12,1.63-.68,3.17-1.81,2.75-3.77Zm-22.89-6.38c-2.74-1.95-1.56-5.75,.45-7.71,1.17-1.15,2.68-1.93,4.18-2.54,1.14-.47,3.35-1.62,4.41-.53,.21,.22,.46,.24,.67,.15-.29,.95-.51,1.92-.66,2.89-.45,1.67-.99,3.31-1.8,4.78-1.29,2.36-4.55,4.88-7.25,2.96Z" fill="#231f20"/></g></svg>