<?xml version="1.0" encoding="UTF-8"?><svg xmlns="http://www.w3.org/2000/svg" viewBox="0 0 35 35"><g id="Example_glyph"><g id="Line_1-2"><text transform="translate(5.82 27.99)" fill="#bcbcbc" font-family="ArialMT, Arial" font-size="35" letter-spacing="-.06em"><tspan x="0" y="0">A</tspan></text></g></g><g id="Artwork_glyph"><path d="M26.24,27.22l-3.04-8.66c.27-.36,.15-.98-.36-1.01L17.87,3.39c-.21-.61-.98-.59-1.21,0-.16,.44-.32,.87-.49,1.31,.08-.74-1.03-1.03-1.21-.26-1.09,4.77-2.48,9.46-4.14,14.05-.03,0-.06,0-.08,0-.64,.05-.76,.88-.37,1.17-.39,1.04-.78,2.09-1.2,3.12-.49,1.18-.98,2.37-1.5,3.54-.33,.74,.75,1.39,1.08,.64,.54-1.21,1.05-2.43,1.55-3.65,.5-1.2,.99-2.41,1.48-3.63,3.4-.27,6.79-.54,10.19-.82,1.02,2.9,2.03,5.79,3.05,8.69,.27,.77,1.48,.44,1.21-.34Zm-13.92-8.85c1.7-4.3,3.32-8.64,4.93-12.98l4.3,12.24c-3.08,.25-6.15,.49-9.23,.74Z" fill="#231f20"/></g></svg>