<?xml version="1.0" encoding="UTF-8"?><svg xmlns="http://www.w3.org/2000/svg" viewBox="0 0 35 35"><g id="Example_glyph"><g id="Line_1-2"><text transform="translate(5.83 27.99)" fill="#bcbcbc" font-family="ArialMT, Arial" font-size="35"><tspan x="0" y="0">B</tspan></text></g></g><g id="Artwork_glyph"><path d="M21.48,15.16c.72-.48,1.35-1.1,1.72-1.95,.6-1.38,.36-3.01-.29-4.31-1.42-2.83-4.6-4.08-7.43-3.82-1.22,.11-2.38,.45-3.49,.93,.09-.73,.19-1.47,.3-2.2,.13-.86-1.07-1.23-1.21-.36-.17,1.07-.31,2.13-.43,3.2-1.56,.84-3.04,1.93-4.46,3.02-.65,.5-.03,1.68,.63,1.18,1.18-.91,2.39-1.82,3.67-2.58-.23,2.42-.37,4.84-.39,7.27-.34,.28-.39,.94,.01,1.15,.02,2.81,.17,5.61,.47,8.41-.9-.18-1.79-.39-2.67-.68-.77-.25-1.1,1.06-.33,1.31,1.04,.34,2.11,.59,3.18,.79,.04,.33,.07,.66,.12,.99,.12,.86,1.32,.5,1.21-.36-.02-.14-.03-.29-.05-.43,2.11,.26,4.24,.25,6.35-.07,2.97-.45,6.86-1.44,7.8-5.06,.9-3.48-2.05-5.53-4.69-6.4ZM13.95,6.72c2.53-.68,5.5-.3,7.3,1.95,.87,1.08,1.44,2.76,.75,4.12-.5,.98-1.5,1.52-2.46,1.88-2.72-.51-5.52-.35-8.2,.42,.03-2.52,.19-5.04,.46-7.55,.69-.33,1.4-.62,2.14-.82Zm10.75,15.21c-1.4,2.81-5.27,3.29-7.89,3.52-1.66,.14-3.31,.07-4.95-.15-.32-2.79-.49-5.6-.51-8.41,2.75,.32,5.65,.15,8.28-.82,2.46,.52,6.88,2.26,5.08,5.87Z" fill="#231f20"/></g></svg>