<?xml version="1.0" encoding="UTF-8"?><svg xmlns="http://www.w3.org/2000/svg" viewBox="0 0 35 35"><g id="Example_glyph"><g id="Line_1-2"><text transform="translate(4.86 27.99)" fill="#bcbcbc" font-family="ArialMT, Arial" font-size="35"><tspan x="0" y="0">C</tspan></text></g></g><g id="Artwork_glyph"><path d="M27.36,20.35c-2.04,3.23-5.08,6.45-9.12,6.36-3.56-.08-6.86-2.98-8.74-5.89-4.16-6.45-.49-15.35,7.04-16.5,3.9-.6,7.86,1.37,10.04,4.7,.45,.68,1.53,.04,1.08-.65-2.13-3.25-5.71-5.39-9.56-5.44-3.8-.05-7.55,1.97-9.69,5.19-2.3,3.46-2.57,8.11-.81,11.86,1.69,3.58,5.3,7.06,9.19,7.84,5.06,1.01,9.11-2.8,11.65-6.83,.44-.7-.64-1.34-1.08-.65Z" fill="#231f20"/></g></svg>