<?xml version="1.0" encoding="UTF-8"?><svg xmlns="http://www.w3.org/2000/svg" viewBox="0 0 35 35"><g id="Example_glyph"><g id="Line_1-2"><text transform="translate(4.86 27.99)" fill="#bcbcbc" font-family="ArialMT, Arial" font-size="35"><tspan x="0" y="0">D</tspan></text></g></g><g id="Artwork_glyph"><path d="M28.24,9.25c-1.44-3.85-4.91-5.49-8.49-5.45-1.78,.02-3.54,.38-5.23,.98-.02-.4-.05-.79-.07-1.19-.05-.89-1.3-.89-1.25,0,.03,.55,.07,1.11,.11,1.66-2.09,.92-4.05,2.24-5.77,3.84-.62,.58,.27,1.55,.88,.98,1.5-1.4,3.18-2.52,4.98-3.35,.44,6.61,.99,13.26,.93,19.87-2.86,.21-5.84-.36-7.69-2.66-.54-.67-1.42,.32-.88,.98,2.71,3.37,7.33,3.38,11.05,2.71,3.8-.69,7.21-2.83,9.52-6.29,2.25-3.37,3.43-8.08,1.92-12.1Zm-2.35,10.33c-1.75,3.14-4.52,5.37-7.72,6.32-.8,.24-1.68,.44-2.59,.57,.05-6.74-.52-13.51-.96-20.24,1.01-.38,2.05-.67,3.12-.86,3.16-.54,6.93-.03,8.8,3.21,1.94,3.37,1.14,7.77-.64,10.99Z" fill="#231f20"/></g></svg>