<?xml version="1.0" encoding="UTF-8"?><svg xmlns="http://www.w3.org/2000/svg" viewBox="0 0 35 35"><g id="Example_glyph"><g id="Line_1-2"><text transform="translate(5.83 27.99)" fill="#bcbcbc" font-family="ArialMT, Arial" font-size="35"><tspan x="0" y="0">E</tspan></text></g></g><g id="Artwork_glyph"><path d="M25.18,25.21c-4.85-.09-9.7,.42-14.44,1.5,.09-3.43,.18-6.86,.27-10.29,4.43-.24,8.86-.47,13.29-.71,.8-.04,.81-1.34,0-1.3-4.42,.24-8.83,.47-13.25,.71,.02-.8,.04-1.61,.06-2.41,.15-.99,.32-1.97,.53-2.94,.24-1.13,.55-2.36,1.33-3.23,.84-.95,2.09-1.3,3.26-1.58,2.81-.68,5.69-.85,8.57-.62,.8,.07,.8-1.23,0-1.3-3.05-.25-6.13-.03-9.11,.72-2.01,.5-3.52,1.44-4.43,3.2,.02-.66,.03-1.32,.05-1.98,.02-.83-1.23-.83-1.25,0l-.18,7.16c-.25,1.66-.39,3.35-.51,4.97-.24,3.32-.19,6.65,.12,9.96,.05,.49,.49,.7,.83,.59,.13,.23,.36,.39,.68,.31,4.66-1.07,9.42-1.56,14.19-1.47,.8,.02,.8-1.28,0-1.3Z" fill="#231f20"/></g></svg>