<?xml version="1.0" encoding="UTF-8"?><svg xmlns="http://www.w3.org/2000/svg" viewBox="0 0 35 35"><g id="Example_glyph"><g id="Line_1-2"><text transform="translate(6.81 27.99)" fill="#bcbcbc" font-family="ArialMT, Arial" font-size="35"><tspan x="0" y="0">F</tspan></text></g></g><g id="Artwork_glyph"><path d="M25.83,2.94c-5.16-.02-11.11,.54-13.62,4.38,.1-1.01,.21-2.03,.34-3.04,.11-.82-1.45-.82-1.56,0-1.03,7.69-.87,15.42,.41,23.08,0,.02,0,.04,0,.06h0c0,.06,.02,.11,.03,.17,.12,.71,1.63,.55,1.53-.17-.49-3.61-.79-7.29-.75-10.96,.02,0,.03,0,.04,0,4.03-.61,8.06-1.22,12.09-1.82,.99-.15,.57-1.39-.41-1.24-3.9,.59-7.8,1.18-11.7,1.77,.04-1.25,.12-2.5,.26-3.74,.27-2.47,1.25-4.64,3.98-5.92,2.83-1.32,6.21-1.29,9.35-1.27,1,0,1-1.29,0-1.29Z" fill="#231f20"/></g></svg>