<?xml version="1.0" encoding="UTF-8"?><svg xmlns="http://www.w3.org/2000/svg" viewBox="0 0 35 35"><g id="Example_glyph"><g id="Line_1-2"><text transform="translate(3.89 27.99)" fill="#bcbcbc" font-family="ArialMT, Arial" font-size="35"><tspan x="0" y="0">G</tspan></text></g></g><g id="Artwork_glyph"><path d="M28.43,15.45c-.1-.32-.43-.51-.77-.43-1.5,.36-3.02,.67-4.54,.95-2.14-.55-4.5,.21-6.54,.98-.6,.23-.59,1.29,.17,1.21,2.11-.23,4.2-.55,6.28-.92,.03,.01,.07,.01,.1,.03,2.45,.83,2.79,3.54,1.65,5.56-2.02,3.59-7.47,4.51-11.17,3.27-4.18-1.41-4.88-7.2-4.96-10.92-.08-3.94,1.35-8.25,5.11-10.19,4.87-2.51,9.86,1.2,12.51,5.07,.45,.65,1.53,.04,1.08-.62-2.79-4.08-7.7-7.82-12.98-6.04-4.78,1.61-6.96,6.7-6.97,11.35,0,4.49,.94,10.86,5.88,12.53,4.38,1.48,10.74,.13,12.82-4.29,.97-2.05,.77-4.67-1.13-6.12,.81-.16,1.61-.34,2.42-.53,1.04,3.55,1.25,7.24,.57,10.88-.15,.77,1.06,1.11,1.21,.33,.76-4.05,.53-8.16-.73-12.1Z" fill="#231f20"/></g></svg>