<?xml version="1.0" encoding="UTF-8"?><svg xmlns="http://www.w3.org/2000/svg" viewBox="0 0 35 35"><g id="Example_glyph"><g id="Line_1-2"><text transform="translate(4.86 27.99)" fill="#bcbcbc" font-family="ArialMT, Arial" font-size="35"><tspan x="0" y="0">H</tspan></text></g></g><g id="Artwork_glyph"><path d="M25.97,12.74c.11-3.06,.26-6.12,.49-9.18,.06-.83-1.19-.83-1.25,0-.23,3.1-.39,6.21-.49,9.32-2.26,.31-4.53,.61-6.79,.92-1.32,.18-2.64,.36-3.97,.54-1.13,.15-2.39,.18-3.48,.55,0,0-.01,0-.02,0-.1-3.76-.27-7.51-.53-11.26-.06-.83-1.31-.83-1.25,0,.28,4.05,.47,8.11,.56,12.17-.64,.86-.75,2.08-.68,3.24,.18,2.78,.45,5.55,.68,8.33,.07,.82,1.23,.85,1.25,0,.08-3.66,.08-7.33,0-10.99,.58-.41,1.41-.46,2.15-.56,4.01-.55,8.02-1.09,12.03-1.63-.13,4.36-.14,8.72-.02,13.08,.02,.83,1.27,.84,1.25,0-.12-4.42-.1-8.84,.03-13.26,.68-.16,.7-1.23,.05-1.27Z" fill="#231f20"/></g></svg>