<?xml version="1.0" encoding="UTF-8"?><svg xmlns="http://www.w3.org/2000/svg" viewBox="0 0 35 35"><g id="Example_glyph"><g id="Line_1-2"><text transform="translate(12.64 27.99)" fill="#bcbcbc" font-family="ArialMT, Arial" font-size="35"><tspan x="0" y="0">I</tspan></text></g></g><g id="Artwork_glyph"><path d="M28.79,3.28c-5.71,.23-11.42,.15-17.12-.23-.8-.05-.8,1.2,0,1.25,2.5,.16,5,.26,7.5,.31-2.4,6.99-3.78,14.3-4.1,21.69,0,.03,.01,.05,.01,.08-1.81,.11-3.62,.2-5.44,.25-.8,.02-.81,1.27,0,1.25,5.64-.16,11.27-.59,16.87-1.31,.79-.1,.8-1.35,0-1.25-3.39,.43-6.79,.75-10.2,.98,0,0,0,0,0,0,.32-7.39,1.73-14.67,4.16-21.66,2.77,.03,5.55,0,8.32-.11,.8-.03,.81-1.28,0-1.25Z" fill="#231f20"/></g></svg>