<?xml version="1.0" encoding="UTF-8"?><svg xmlns="http://www.w3.org/2000/svg" viewBox="0 0 35 35"><g id="Example_glyph"><g id="Line_1-2"><text transform="translate(8.75 27.99)" fill="#bcbcbc" font-family="ArialMT, Arial" font-size="35"><tspan x="0" y="0">J</tspan></text></g></g><g id="Artwork_glyph"><path d="M26.49,2.94c-4.43,.08-8.85,.16-13.28,.24-.8,.01-.81,1.33,0,1.32,2.6-.05,5.2-.1,7.8-.14,.21,3.1,.42,6.21,.56,9.32,.14,3.2,.39,6.57-.37,9.71-.32,1.34-.9,2.95-2.33,3.28-1.43,.33-2.73-.71-3.67-1.73-1.91-2.07-3.08-4.74-3.49-7.58-.12-.84-1.33-.48-1.21,.35,.46,3.17,1.86,6.18,4.05,8.42,1.89,1.92,4.95,2.89,6.75,.29,1.93-2.78,1.69-7.01,1.6-10.26-.11-3.95-.38-7.89-.65-11.83,1.41-.03,2.82-.05,4.23-.08,.8-.01,.81-1.33,0-1.32Z" fill="#231f20"/></g></svg>