<?xml version="1.0" encoding="UTF-8"?><svg xmlns="http://www.w3.org/2000/svg" viewBox="0 0 35 35"><g id="Example_glyph"><g id="Line_1-2"><text transform="translate(5.83 27.99)" fill="#bcbcbc" font-family="ArialMT, Arial" font-size="35"><tspan x="0" y="0">K</tspan></text></g></g><g id="Artwork_glyph"><path d="M25.24,3.04c-5.3,3.57-9.75,8.47-14.3,12.98,.12-4.14,.07-8.28-.26-12.44-.06-.81-1.32-.82-1.25,0,.62,7.79,.28,15.53-.4,23.31-.07,.82,1.18,.81,1.25,0,.27-3.04,.48-6.08,.61-9.12,.03-.01,.06-.02,.09-.04,2.92-1.86,6.38-1.78,8.87,.78,2.32,2.39,3.08,5.78,3.8,8.95,.18,.8,1.39,.46,1.21-.34-.84-3.72-1.84-7.72-4.9-10.23-1.96-1.6-4.31-2.03-6.57-1.53,3.94-3.98,7.89-8.12,12.5-11.22,.67-.45,.04-1.55-.63-1.1Z" fill="#231f20"/></g></svg>