<?xml version="1.0" encoding="UTF-8"?><svg xmlns="http://www.w3.org/2000/svg" viewBox="0 0 35 35"><g id="Example_glyph"><g id="Line_1-2"><text transform="translate(8.42 27.99)" fill="#bcbcbc" font-family="ArialMT, Arial" font-size="35" letter-spacing="-.04em"><tspan x="0" y="0">L</tspan></text></g></g><g id="Artwork_glyph"><path d="M27.17,24.5c-3.58-.29-7.18-.14-10.72,.47-1.74,.3-3.45,.71-5.13,1.23-.44,.14-.87,.29-1.31,.43-.48,.16-.55,.25-.64-.16-.07-.33,.26-.97,.35-1.3,.12-.43,.24-.87,.36-1.3,1.94-6.86,4.31-13.61,7.08-20.22,.3-.71-.91-1.01-1.21-.31-3.09,7.35-5.77,14.91-7.74,22.61-.25,.98-.23,2.09,1.17,2.06,.84-.02,1.7-.49,2.48-.72,.88-.27,1.77-.5,2.66-.71,4.14-.96,8.41-1.22,12.65-.88,.8,.06,.8-1.11,0-1.18Z" fill="#231f20"/></g></svg>