<?xml version="1.0" encoding="UTF-8"?><svg xmlns="http://www.w3.org/2000/svg" viewBox="0 0 35 35"><g id="Example_glyph"><g id="Line_1-2"><text transform="translate(2.92 27.99)" fill="#bcbcbc" font-family="ArialMT, Arial" font-size="35"><tspan x="0" y="0">M</tspan></text></g></g><g id="Artwork_glyph"><path d="M30.38,26.98c-3.46-7.46-.63-16.18-3.9-23.72-.21-.49-.89-.37-1.13,0-3.16,4.78-5.74,9.89-7.76,15.26-3.49-4.13-5.73-9.17-6.48-14.57-.08-.58-.95-.62-1.2-.16-.51,.95-.88,1.94-1.17,2.95,.01-.12,.02-.24,.04-.36,.09-.85-1.22-.84-1.31,0-.6,5.87-1.2,11.74-1.8,17.61-.07,.65,.95,.91,1.22,.33,2.66-5.63,1.26-12.23,3.32-17.96,1.1,5.19,3.57,9.99,7.13,13.9,.36,.39,.93,.15,1.09-.29,1.88-5.25,4.35-10.25,7.33-14.94,2.57,7.26,.17,15.48,3.48,22.62,.36,.77,1.49,.1,1.13-.67Z" fill="#231f20"/></g></svg>