<?xml version="1.0" encoding="UTF-8"?><svg xmlns="http://www.w3.org/2000/svg" viewBox="0 0 35 35"><g id="Example_glyph"><g id="Line_1-2"><text transform="translate(4.86 27.99)" fill="#bcbcbc" font-family="ArialMT, Arial" font-size="35"><tspan x="0" y="0">N</tspan></text></g></g><g id="Artwork_glyph"><path d="M26.74,4.46c.02-.91-1.47-.91-1.49,0-.14,6.45,0,12.89,.38,19.33-4.99-6.42-9.82-12.96-14.45-19.62-.37-.53-1.03-.39-1.29,.07,.02-.21,.05-.42,.07-.64,.1-.91-1.39-.9-1.49,0-.88,7.95-1.7,16.01,.16,23.89,.18,.78,1.48,.61,1.46-.19-.15-6.94,.19-13.87,.97-20.77,4.75,6.77,9.68,13.42,14.8,19.93,.4,.5,1.44,.42,1.38-.36-.5-7.21-.68-14.43-.52-21.65Z" fill="#231f20"/></g></svg>