<?xml version="1.0" encoding="UTF-8"?><svg xmlns="http://www.w3.org/2000/svg" viewBox="0 0 35 35"><g id="Example_glyph"><g id="Line_1-2"><text transform="translate(3.89 27.99)" fill="#bcbcbc" font-family="ArialMT, Arial" font-size="35"><tspan x="0" y="0">O</tspan></text></g></g><g id="Artwork_glyph"><path d="M27.99,10.79C25.79,5.24,19.96,1.53,13.73,3.43c-.2,.06-.32,.18-.38,.32-2.74,1.17-5.34,3.75-6.47,5.64-2.99,4.99-.59,10.9,3.45,14.61,3.95,3.64,10.23,5.99,14.69,1.73,3.94-3.76,4.89-10.06,2.96-14.93Zm-2.06,11.78c-1.16,1.98-2.92,3.73-5.34,4.18-2.55,.48-5.11-.48-7.18-1.86-4-2.66-7.36-7.24-6.5-12.1,.47-2.65,2.27-4.71,4.39-6.36,1.99-1.55,5.29-3.25,7.37-.86,.51,.59,1.39-.26,.88-.84-.11-.13-.22-.24-.33-.35,2.82,.65,5.26,2.51,6.78,5.12,2.31,3.98,2.25,9.11-.06,13.07Z" fill="#231f20"/></g></svg>