<?xml version="1.0" encoding="UTF-8"?><svg xmlns="http://www.w3.org/2000/svg" viewBox="0 0 35 35"><g id="Example_glyph"><g id="Line_1-2"><text transform="translate(6.14 27.99)" fill="#bcbcbc" font-family="ArialMT, Arial" font-size="35" letter-spacing="-.02em"><tspan x="0" y="0">P</tspan></text></g></g><g id="Artwork_glyph"><path d="M28.05,10.02c-1-3.99-6.26-6.46-10.14-6.99-1.92-.26-3.94,.04-5.48,1.23-.34,.26-.62,.56-.85,.86-.32-.36-1.09-.24-1.11,.37-.03,1.14-.07,2.28-.1,3.43-.02,.18-.03,.35-.05,.53-.48,5.95-1.29,12.01-.5,17.97,.1,.75,1.23,.8,1.25,0,.11-3.75,.22-7.5,.33-11.25,1.06,.87,2.41,1.32,3.83,1.57,2.18,.38,4.46,.53,6.64,.08,3.63-.76,7.14-3.95,6.18-7.8Zm-1.2,2.19c-.38,1.61-1.66,2.95-3.16,3.72-1.97,1.01-4.31,1.08-6.48,.87-1.97-.19-4.37-.51-5.62-2.15-.04-.05-.09-.08-.13-.12,.05-1.85,.11-3.71,.16-5.57,.18-1.81,.59-3.42,2.48-4.3,1.78-.83,3.82-.56,5.62,.03,1.84,.6,3.76,1.47,5.22,2.73,1.39,1.2,2.34,2.97,1.91,4.79Z" fill="#231f20"/></g></svg>