<?xml version="1.0" encoding="UTF-8"?><svg xmlns="http://www.w3.org/2000/svg" viewBox="0 0 35 35"><g id="Example_glyph"><g id="Line_1-2"><text transform="translate(3.89 27.99)" fill="#bcbcbc" font-family="ArialMT, Arial" font-size="35"><tspan x="0" y="0">Q</tspan></text></g></g><g id="Artwork_glyph"><path d="M28.49,31.24c-1.7-1.49-3.24-3.16-4.62-4.96,.68-.46,1.31-1.01,1.86-1.68,3.72-4.43,3.4-11.4,.5-16.21-3.2-5.3-9.76-7.16-14.85-3.69-.1,.07-.16,.15-.21,.24-2.23,1.29-3.98,3.71-4.57,6.5-1.15,5.42,1.24,11.47,5.55,14.56,3.09,2.22,7.27,2.6,10.61,.94,1.45,1.91,3.07,3.67,4.86,5.23,.62,.54,1.51-.4,.88-.94Zm-13.6-5.21c-4.14-1.61-6.91-6.19-7.29-10.76-.23-2.85,.48-5.81,2.41-7.87,1.94-2.08,4.93-2.81,7.43-1.44,.71,.39,1.35-.76,.63-1.15-.42-.23-.85-.4-1.28-.54,2.68-.09,5.35,1.03,7.26,3.27,3.15,3.7,4.25,9.83,1.98,14.3-.72,1.43-1.75,2.54-2.96,3.35-.81-1.14-1.58-2.31-2.25-3.56-.4-.74-1.48-.07-1.08,.67,.66,1.22,1.4,2.4,2.2,3.53-2.16,1.01-4.71,1.11-7.05,.19Z" fill="#231f20"/></g></svg>