<?xml version="1.0" encoding="UTF-8"?><svg xmlns="http://www.w3.org/2000/svg" viewBox="0 0 35 35"><g id="Example_glyph"><g id="Line_1-2"><text transform="translate(4.86 27.99)" fill="#bcbcbc" font-family="ArialMT, Arial" font-size="35"><tspan x="0" y="0">R</tspan></text></g></g><g id="Artwork_glyph"><path d="M28.82,26.68c-1.19-.38-1.55-1.9-1.97-2.84-.43-.96-.87-1.93-1.43-2.84-.97-1.58-2.28-2.94-3.88-4-.73-.49-1.52-.89-2.33-1.22,1.19-.3,2.33-.75,3.32-1.46,2.77-1.99,3.48-5.77,1.54-8.46-2-2.78-5.79-3.63-9.07-2.32-2.51,1-4.09,2.94-5.04,5.16-.03-1.57-.06-3.14-.1-4.71-.02-.85-1.46-.85-1.44,0,.07,3.54,.14,7.08,.21,10.62-.39,3.79-.2,7.69,.23,11.43,.09,.82,1.46,.87,1.44,0-.06-3.14-.13-6.29-.19-9.43,2.1,.05,4.18-.05,6.26-.32,2.15,.45,4.17,1.43,5.8,2.94,1.64,1.51,2.59,3.4,3.45,5.36,.6,1.38,1.13,2.84,2.8,3.37,.88,.28,1.25-.99,.38-1.27ZM10.34,12.67c.57-3.66,2.39-7.7,6.87-8.37,4.59-.68,8.11,3.84,5.78,7.56-1.19,1.9-3.47,2.6-5.7,2.97-.29,.05-.58,.08-.87,.12-2.07-.39-4.24-.33-6.32,.18,0-.14,0-.29,0-.43,.07-.68,.15-1.36,.25-2.04Z" fill="#231f20"/></g></svg>