<?xml version="1.0" encoding="UTF-8"?><svg xmlns="http://www.w3.org/2000/svg" viewBox="0 0 35 35"><g id="Example_glyph"><g id="Line_3-2"><text transform="translate(13.61 27.99)" fill="#bcbcbc" font-family="ArialMT, Arial" font-size="35"><tspan x="0" y="0">‘</tspan></text></g></g><g id="Artwork_glyph"><path d="M18.45,7.38c-.31-.03-.62,.07-.87,.27-.03-.23-.05-.44-.05-.76,0-.25,0-.49,.03-.74,0,0,0-.05,0-.08,0-.03,.02-.11,.02-.12,.02-.13,.04-.26,.07-.38,.11-.53,.21-.84,.42-1.29,.2-.42,.08-.98-.27-1.23-.34-.24-.82-.1-1.01,.32-.72,1.56-.93,3.43-.56,5.17,.19,.91,.59,1.84,1.39,2.1,.24,.08,.49,.07,.72,0,.58-.02,1.11-.49,1.26-1.22,.21-.97-.31-1.96-1.15-2.05Z" fill="#231f20"/></g></svg>