<?xml version="1.0" encoding="UTF-8"?><svg xmlns="http://www.w3.org/2000/svg" viewBox="0 0 35 35"><g id="Example_glyph"><g id="Line_3-2"><text transform="translate(14.26 27.99)" fill="#bcbcbc" font-family="ArialMT, Arial" font-size="35" letter-spacing="-.04em"><tspan x="0" y="0">’</tspan></text></g></g><g id="Artwork_glyph"><path d="M19.82,4.17c-.18-.34-.49-.62-.86-.79-.07-.06-.14-.14-.22-.19-.7-.41-1.62-.3-2.15,.28-.58,.63-.46,1.41-.11,2.1,.11,.22,.46,.37,.72,.36,.27-.01,.51-.08,.73-.18,.12,0,.23-.01,.35-.04-.09,.34-.21,.68-.32,1.02-.3,.91-.59,1.83-.89,2.74-.29,.91,1.32,1.29,1.61,.39,.41-1.26,.85-2.51,1.22-3.78,.19-.64,.24-1.3-.08-1.91Z" fill="#231f20"/></g></svg>