<?xml version="1.0" encoding="UTF-8"?><svg xmlns="http://www.w3.org/2000/svg" viewBox="0 0 35 35"><g id="Example_glyph"><g id="Line_3-2"><text transform="translate(11.67 27.99)" fill="#bcbcbc" font-family="ArialMT, Arial" font-size="35"><tspan x="0" y="0">“</tspan></text></g></g><g id="Artwork_glyph"><g><path d="M14.26,8.93s0-.02,0-.02h0s0,.01,0,.02c0,0,0,0,0,0Z" fill="#231f20"/><path d="M14.54,5.91c.26-.73,.74-1.4,1.42-1.61,.76-.24,.44-1.57-.32-1.33-1.31,.41-2.11,1.76-2.44,3.18-.17,.74-.32,1.56-.32,2.33,0,.47,.14,.95,.4,1.32,.01,.02,.03,.04,.05,.06,.08,.1,.16,.19,.26,.26,.11,.08,.22,.15,.35,.19,.02,0,.03,.02,.04,.02,.03,0,.05,0,.08,0,.06,.01,.12,.02,.19,.02,0,0,0,0,.01,0,.05,0,.09,0,.14,0,.71-.07,1.61-.73,1.6-1.63,0-.51-.35-.99-.81-1.01-.12,0-.23,.01-.33,.05-.18-.11-.38-.19-.59-.19-.03,0-.05,0-.08,0,.01-.08,.03-.17,.04-.24,.07-.48,.17-.97,.33-1.43Z" fill="#231f20"/><polygon points="14.27 8.9 14.27 8.91 14.27 8.91 14.27 8.9" fill="#231f20"/></g><path d="M20.35,7.47s-.08,.03-.12,.03c-.06-.03-.11-.07-.17-.1,0-.03,0-.06,0-.07,0-.09,0-.18,0-.26,0-.25,.02-.39,.05-.57,.08-.48,.19-.8,.4-1.2,.17-.33,.43-.68,.67-.89,.3-.26,.45-.68,.25-1.08-.17-.33-.65-.54-.94-.28-1.01,.88-1.63,2.14-1.77,3.58-.04,.39-.03,.86,.04,1.33-.02,.2,.02,.4,.11,.56,.02,.1,.05,.19,.08,.28,0,.03-.03,.06-.03,.09-.14,.76,.16,1.59,.87,1.76,.5,.12,.92-.13,1.18-.53,.38-.16,.69-.47,.79-.95,.18-.94-.58-1.79-1.39-1.71Z" fill="#231f20"/></g></svg>