<?xml version="1.0" encoding="UTF-8"?><svg xmlns="http://www.w3.org/2000/svg" viewBox="0 0 35 35"><g id="Example_glyph"><g id="Line_3-2"><text transform="translate(34.74 27.99)" fill="#bcbcbc" font-family="ArialMT, Arial" font-size="35"><tspan x="0" y="0">@</tspan></text><text transform="translate(11.67 27.99)" fill="#bcbcbc" font-family="ArialMT, Arial" font-size="35"><tspan x="0" y="0">”</tspan></text></g></g><g id="Artwork_glyph"><path d="M16.6,5.62c-.11-.79-.34-1.77-.94-2.2-.07-.11-.16-.2-.26-.28-.82-.59-1.78,.2-1.99,1.18-.11,.53,0,1.08,.34,1.46,.33,.38,.85,.47,1.26,.22,.13-.08,.24-.21,.33-.34,.05,.3,.09,.59,.09,.9,0,.6-.13,1.12-.41,1.59-.23,.39-.59,.67-.99,.78-.33,.09-.52,.53-.44,.9,.09,.39,.44,.6,.77,.51,.78-.21,1.44-.84,1.84-1.63,.47-.93,.55-2.04,.41-3.09Z" fill="#231f20"/><path d="M21.46,4.57c-.02-.07-.05-.13-.08-.19-.04-.43-.22-.84-.55-1.12-.56-.47-1.36-.41-1.86,.14-.59,.65-.51,1.91,.38,2.19,.02,0,.04,0,.06,0,.3,.32,.73,.4,1.1,.28,.03,.49-.01,.99-.12,1.43-.19,.76-.55,1.43-1.08,1.96-.56,.57,.28,1.5,.84,.93,.92-.93,1.45-2.25,1.54-3.62,.04-.66-.02-1.38-.24-2Z" fill="#231f20"/></g></svg>