<?xml version="1.0" encoding="UTF-8"?><svg xmlns="http://www.w3.org/2000/svg" viewBox="0 0 35 35"><g id="Example_glyph"><g id="Line_1-2"><text transform="translate(5.83 27.99)" fill="#bcbcbc" font-family="ArialMT, Arial" font-size="35"><tspan x="0" y="0">S</tspan></text></g></g><g id="Artwork_glyph"><path d="M26.64,21.15c-.32-4.5-4.16-6.68-7.5-7.74-2.12-.67-4.34-1.11-6.27-2.38-.84-.55-1.76-1.29-2.18-2.33-.58-1.44,.45-2.38,1.47-2.96,3.98-2.28,8.96-1.64,12.58,1.2,.67,.52,1.29-.72,.63-1.24-2.98-2.34-6.68-3.21-10.23-2.53-1.63,.31-3.53,.95-4.81,2.23-1.32,1.32-1.34,3.23-.31,4.79,2.49,3.75,7.3,3.8,10.81,5.38,1.84,.82,3.73,2.27,4.36,4.53,.68,2.4-.31,4.45-2.23,5.48-4.43,2.38-9.72,.46-12.65-3.84-.5-.73-1.38,.3-.88,1.02,2.37,3.48,6.11,5.49,9.96,5.24,3.37-.22,7.59-2.18,7.26-6.82Z" fill="#231f20"/></g></svg>