<?xml version="1.0" encoding="UTF-8"?><svg xmlns="http://www.w3.org/2000/svg" viewBox="0 0 35 35"><g id="Example_glyph"><g id="Line_1-2"><text transform="translate(4.86 27.99)" fill="#bcbcbc" font-family="ArialMT, Arial" font-size="35"><tspan x="0" y="0">U</tspan></text></g></g><g id="Artwork_glyph"><path d="M25.46,4.72c-.24-.75-1.44-.43-1.21,.32,1.38,4.4,1.81,9.09,1.04,13.64-.34,2.03-.97,4.06-2.56,5.5-1.5,1.36-3.66,2.22-5.66,2.53-5.49,.84-6.8-4.65-7.34-8.78-.61-4.73-.52-9.53,.24-14.24,.12-.77-1.08-1.1-1.21-.32-.68,4.22-.87,8.5-.48,12.76,.32,3.45,.63,7.75,3.39,10.28,2.65,2.42,6.47,1.68,9.45,.27,3.56-1.69,4.99-4.81,5.5-8.48,.64-4.52,.21-9.13-1.16-13.48Z" fill="#231f20"/></g></svg>