<?xml version="1.0" encoding="UTF-8"?><svg xmlns="http://www.w3.org/2000/svg" viewBox="0 0 35 35"><g id="Example_glyph"><g id="Line_1-2"><text transform="translate(.98 27.99)" fill="#bcbcbc" font-family="ArialMT, Arial" font-size="35"><tspan x="0" y="0">W</tspan></text></g></g><g id="Artwork_glyph"><path d="M31.98,3.35c-4.72,6.48-4.41,15.04-8.47,21.79-2.5-4.56-3.88-9.6-3.98-14.81-.01-.6-.91-.92-1.2-.32-2.56,5.23-5.11,10.47-7.67,15.7-2.48-6.79-4.7-13.68-6.61-20.65-.22-.79-1.46-.46-1.25,.34,2.06,7.48,4.44,14.86,7.15,22.13,.17,.47,.92,.69,1.18,.15,2.42-4.96,4.84-9.91,7.26-14.87,.46,4.91,1.99,9.65,4.53,13.92,.26,.43,.85,.39,1.12,0,4.71-6.9,4.13-15.97,9.07-22.74,.49-.67-.63-1.31-1.12-.64Z" fill="#231f20"/></g></svg>