<?xml version="1.0" encoding="UTF-8"?><svg xmlns="http://www.w3.org/2000/svg" viewBox="0 0 35 35"><g id="Example_glyph"><g id="Line_1-2"><text transform="translate(5.83 27.99)" fill="#bcbcbc" font-family="ArialMT, Arial" font-size="35"><tspan x="0" y="0">X</tspan></text></g></g><g id="Artwork_glyph"><path d="M25.63,4.24c-2.52,3.75-5.17,7.41-7.93,11-.12-.16-.25-.31-.37-.47-2.76-3.49-5.5-7.09-6.6-11.36-.22-.83-1.6-.48-1.38,.35,1.1,4.25,3.75,7.88,6.49,11.35,.33,.42,.66,.83,.99,1.24-2.79,3.57-5.69,7.06-8.73,10.46-.59,.66,.42,1.6,1.01,.94,2.98-3.34,5.84-6.78,8.6-10.29,2.55,3.22,5.1,6.44,7.66,9.66,.54,.68,1.79,.02,1.24-.67-2.67-3.37-5.34-6.74-8.01-10.11,2.89-3.73,5.66-7.55,8.28-11.45,.49-.73-.75-1.4-1.24-.67Z" fill="#231f20"/></g></svg>