<?xml version="1.0" encoding="UTF-8"?><svg xmlns="http://www.w3.org/2000/svg" viewBox="0 0 35 35"><g id="Example_glyph"><g id="Line_1-2"><text transform="translate(6.14 27.99)" fill="#bcbcbc" font-family="ArialMT, Arial" font-size="35" letter-spacing="-.02em"><tspan x="0" y="0">Y</tspan></text></g></g><g id="Artwork_glyph"><path d="M24.71,3.22c-2.21,3.29-4.27,6.67-6.21,10.12-2.42-3.21-4.85-6.42-7.27-9.62-.48-.63-1.56-.01-1.08,.63,2.56,3.39,5.12,6.78,7.69,10.17-2.24,4.08-4.31,8.25-6.17,12.52-.32,.72,.76,1.36,1.08,.63,1.79-4.11,3.77-8.13,5.91-12.06,.02,.02,.04,.05,.06,.07,.48,.63,1.56,.01,1.08-.63-.16-.21-.32-.42-.48-.63,2.01-3.61,4.17-7.14,6.47-10.58,.45-.67-.64-1.29-1.08-.63Z" fill="#231f20"/></g></svg>