<?xml version="1.0" encoding="UTF-8"?><svg xmlns="http://www.w3.org/2000/svg" viewBox="0 0 35 35"><g id="Example_glyph"><g id="Line_1-2"><text transform="translate(6.81 27.99)" fill="#bcbcbc" font-family="ArialMT, Arial" font-size="35"><tspan x="0" y="0">Z</tspan></text></g></g><g id="Artwork_glyph"><path d="M26.62,25.16c-5.43-.36-10.87-.08-16.23,.82,5.09-4.24,9.63-9.12,13.51-14.56,1.43-2,5.04-6.53,1.21-8.18-1.64-.71-3.76,0-5.42,.29-2.26,.39-4.52,.77-6.78,1.16-.92,.16-.53,1.6,.39,1.44,1.81-.31,3.61-.62,5.42-.93,.9-.15,1.81-.31,2.71-.46,.89-.15,1.89-.45,2.8-.23,2.39,.57,.29,3.39-.46,4.51-.93,1.38-1.9,2.73-2.92,4.04-3.95,5.08-8.52,9.64-13.58,13.54-.65,.5-.29,1.55,.56,1.37,6.18-1.3,12.49-1.73,18.79-1.31,.94,.06,.93-1.44,0-1.5Z" fill="#231f20"/></g></svg>