<?xml version="1.0" encoding="UTF-8"?><svg xmlns="http://www.w3.org/2000/svg" viewBox="0 0 35 35"><g id="Example_glyph"><g id="Line_4-2"><text transform="translate(12.64 27.99)" fill="#bcbcbc" font-family="ArialMT, Arial" font-size="35"><tspan x="0" y="0">[</tspan></text></g></g><g id="Artwork_glyph"><path d="M21.12,33.43c-1.1,.29-2.81,.75-3.7-.28-.83-.97-.57-2.73-.57-3.91,0-3.11,.03-6.23,.09-9.34,.05-3.03,.13-6.05,.24-9.08,.05-1.39,.04-2.81,.17-4.2,.07-.78,.22-1.71,.95-2.15,.6-.36,1.42-.26,2.08-.22,.8,.05,.8-1.25,0-1.3-1.2-.07-2.51-.04-3.38,.95-.89,1.01-.9,2.52-.95,3.8-.18,4.23-.29,8.47-.36,12.7-.04,2.07-.06,4.15-.07,6.23-.01,1.78-.2,3.68,.08,5.44,.5,3.13,3.31,3.24,5.76,2.6,.78-.2,.45-1.46-.33-1.25Z" fill="#231f20"/></g></svg>