<?xml version="1.0" encoding="UTF-8"?><svg xmlns="http://www.w3.org/2000/svg" viewBox="0 0 35 35"><g id="Example_glyph"><g id="Line_4-2"><text transform="translate(12.64 27.99)" fill="#bcbcbc" font-family="ArialMT, Arial" font-size="35"><tspan x="0" y="0">]</tspan></text></g></g><g id="Artwork_glyph"><path d="M19.73,6.4c-.14-1.27-.62-2.48-1.78-3.09-1.23-.65-2.72-.32-3.99,0-.78,.2-.45,1.45,.33,1.25,1.21-.3,3.01-.75,3.81,.6,.64,1.07,.43,2.65,.43,3.85-.01,3.07-.08,6.13-.21,9.2-.12,2.98-.29,5.96-.52,8.93-.11,1.44-.23,2.89-.37,4.33-.08,.85-.07,1.86-.98,2.17-.8,.27-1.77-.48-2.4-.9-.68-.46-1.3,.67-.63,1.12,1.12,.75,2.47,1.5,3.81,.87,1.2-.56,1.31-1.8,1.43-3.01,.42-4.32,.7-8.66,.89-13,.09-2.13,.16-4.26,.19-6.39,.03-1.95,.19-3.98-.02-5.92Z" fill="#231f20"/></g></svg>