<?xml version="1.0" encoding="UTF-8"?><svg xmlns="http://www.w3.org/2000/svg" viewBox="0 0 35 35"><g id="Example_glyph"><g id="Line_2-2"><text transform="translate(7.77 27.99)" fill="#bcbcbc" font-family="ArialMT, Arial" font-size="35"><tspan x="0" y="0">a</tspan></text></g></g><g id="Artwork_glyph"><path d="M25.04,26.4c-2.06,.11-2.42-2.96-2.46-5.23,1.35-3.05,1.67-6.6,1.58-10.03-.02-.88-.91-.99-1.27-.38-2.71-1.81-6.02-.68-8.47,1.26-1.3,1.03-2.57,2.22-3.68,3.52-1,1.17-1.8,2.58-1.95,4.24-.29,3.26,1.82,6.3,4.54,7.06,2.97,.83,6.05-.69,7.95-3.34,.05-.07,.08-.14,.13-.21,.34,2.37,1.25,4.83,3.63,4.7,.89-.05,.89-1.64,0-1.59Zm-9.72-.94c-2.45,.14-4.83-1.65-5.14-4.59-.31-2.97,2.22-5.07,4.01-6.7,2.25-2.04,5.44-3.85,8.16-1.92-.83,2.74-1.22,5.64-1.14,8.54-1.22,2.5-3.31,4.51-5.89,4.66Z" fill="#231f20"/></g></svg>