<?xml version="1.0" encoding="UTF-8"?><svg xmlns="http://www.w3.org/2000/svg" viewBox="0 0 35 35"><g id="Example_glyph"><g id="Line_2-2"><text transform="translate(7.77 27.99)" fill="#bcbcbc" font-family="ArialMT, Arial" font-size="35"><tspan x="0" y="0">b</tspan></text></g></g><g id="Artwork_glyph"><path d="M25.39,18.14c-.52-3.3-2.94-5.67-5.73-6.2-2.91-.55-5.75,.99-7.54,3.65-.06,.1-.11,.2-.17,.3-.15-4.08-.29-8.17-.44-12.25-.03-.93-1.28-.94-1.25,0,.18,4.91,.35,9.83,.53,14.74-.93,2.95-.68,6.3,.41,9.25,.25,.67,1.19,.32,1.16-.37-.02-.59-.04-1.18-.06-1.77,3.08,1.21,6.44,2.26,9.55,.64,2.69-1.4,4.06-4.66,3.54-8Zm-2.93,5.9c-2.98,2.7-7.03,1.18-10.22-.1-.06-1.74-.13-3.49-.19-5.23,.38-1.15,.94-2.22,1.74-3.13,2.26-2.58,5.86-3.14,8.44-.83,2.49,2.23,2.79,6.96,.23,9.29Z" fill="#231f20"/></g></svg>