<?xml version="1.0" encoding="UTF-8"?><svg xmlns="http://www.w3.org/2000/svg" viewBox="0 0 35 35"><g id="Example_glyph"><g id="Line_2-2"><text transform="translate(8.75 27.99)" fill="#bcbcbc" font-family="ArialMT, Arial" font-size="35"><tspan x="0" y="0">c</tspan></text></g></g><g id="Artwork_glyph"><path d="M23.79,21.83c0,1.42-1.08,2.36-2.16,2.97-1.21,.68-2.57,1.33-3.91,1.61-2.52,.51-4.66-1.37-5.61-3.74-1.72-4.29,.34-9.57,4.57-10.96,2.33-.76,4.87-.39,6.87,1.11,.74,.55,1.44-.74,.71-1.29-4.45-3.33-11.15-1.55-13.35,3.83-1.01,2.48-1.08,5.38-.09,7.87,1.1,2.77,3.61,5.06,6.57,4.73,1.76-.2,3.63-1.08,5.16-2,1.44-.87,2.64-2.28,2.64-4.13,0-.96-1.4-.96-1.4,0Z" fill="#231f20"/></g></svg>